<?xml version="1.0" encoding="UTF-8" standalone="no"?>
<!-- Created with Inkscape (http://www.inkscape.org/) -->

<svg
   xmlns:dc="http://purl.org/dc/elements/1.1/"
   xmlns:cc="http://creativecommons.org/ns#"
   xmlns:rdf="http://www.w3.org/1999/02/22-rdf-syntax-ns#"
   xmlns:svg="http://www.w3.org/2000/svg"
   xmlns="http://www.w3.org/2000/svg"
   xmlns:sodipodi="http://sodipodi.sourceforge.net/DTD/sodipodi-0.dtd"
   xmlns:inkscape="http://www.inkscape.org/namespaces/inkscape"
   width="210mm"
   height="297mm"
   viewBox="0 0 744.09448819 1052.3622047"
   id="svg2"
   version="1.1"
   inkscape:version="0.91 r"
   sodipodi:docname="flow.svg">
  <defs
     id="defs4">
    <marker
       inkscape:stockid="Arrow2Lstart"
       orient="auto"
       refY="0.0"
       refX="0.0"
       id="Arrow2Lstart"
       style="overflow:visible"
       inkscape:isstock="true">
      <path
         id="path4609"
         style="fill-rule:evenodd;stroke-width:0.625;stroke-linejoin:round;stroke:#000000;stroke-opacity:1;fill:#000000;fill-opacity:1"
         d="M 8.7185878,4.0337352 L -2.2072895,0.016013256 L 8.7185884,-4.0017078 C 6.9730900,-1.6296469 6.9831476,1.6157441 8.7185878,4.0337352 z "
         transform="scale(1.1) translate(1,0)" />
    </marker>
    <marker
       inkscape:stockid="Arrow2Lend"
       orient="auto"
       refY="0.0"
       refX="0.0"
       id="Arrow2Lend"
       style="overflow:visible;"
       inkscape:isstock="true">
      <path
         id="path4612"
         style="fill-rule:evenodd;stroke-width:0.625;stroke-linejoin:round;stroke:#000000;stroke-opacity:1;fill:#000000;fill-opacity:1"
         d="M 8.7185878,4.0337352 L -2.2072895,0.016013256 L 8.7185884,-4.0017078 C 6.9730900,-1.6296469 6.9831476,1.6157441 8.7185878,4.0337352 z "
         transform="scale(1.1) rotate(180) translate(1,0)" />
    </marker>
    <inkscape:path-effect
       effect="spiro"
       id="path-effect4216"
       is_visible="true" />
    <marker
       inkscape:stockid="Arrow2Lstart"
       orient="auto"
       refY="0"
       refX="0"
       id="Arrow2Lstart-6"
       style="overflow:visible"
       inkscape:isstock="true">
      <path
         inkscape:connector-curvature="0"
         id="path4609-8"
         style="fill:#000000;fill-opacity:1;fill-rule:evenodd;stroke:#000000;stroke-width:0.625;stroke-linejoin:round;stroke-opacity:1"
         d="M 8.7185878,4.0337352 -2.2072895,0.01601326 8.7185884,-4.0017078 c -1.7454984,2.3720609 -1.7354408,5.6174519 -6e-7,8.035443 z"
         transform="matrix(1.1,0,0,1.1,1.1,0)" />
    </marker>
    <marker
       inkscape:stockid="Arrow2Lend"
       orient="auto"
       refY="0"
       refX="0"
       id="Arrow2Lend-2"
       style="overflow:visible"
       inkscape:isstock="true">
      <path
         inkscape:connector-curvature="0"
         id="path4612-9"
         style="fill:#000000;fill-opacity:1;fill-rule:evenodd;stroke:#000000;stroke-width:0.625;stroke-linejoin:round;stroke-opacity:1"
         d="M 8.7185878,4.0337352 -2.2072895,0.01601326 8.7185884,-4.0017078 c -1.7454984,2.3720609 -1.7354408,5.6174519 -6e-7,8.035443 z"
         transform="matrix(-1.1,0,0,-1.1,-1.1,0)" />
    </marker>
    <marker
       inkscape:stockid="Arrow2Lstart"
       orient="auto"
       refY="0"
       refX="0"
       id="Arrow2Lstart-0"
       style="overflow:visible"
       inkscape:isstock="true">
      <path
         inkscape:connector-curvature="0"
         id="path4609-4"
         style="fill:#000000;fill-opacity:1;fill-rule:evenodd;stroke:#000000;stroke-width:0.625;stroke-linejoin:round;stroke-opacity:1"
         d="M 8.7185878,4.0337352 -2.2072895,0.01601326 8.7185884,-4.0017078 c -1.7454984,2.3720609 -1.7354408,5.6174519 -6e-7,8.035443 z"
         transform="matrix(1.1,0,0,1.1,1.1,0)" />
    </marker>
    <marker
       inkscape:stockid="Arrow2Lend"
       orient="auto"
       refY="0"
       refX="0"
       id="Arrow2Lend-0"
       style="overflow:visible"
       inkscape:isstock="true">
      <path
         inkscape:connector-curvature="0"
         id="path4612-7"
         style="fill:#000000;fill-opacity:1;fill-rule:evenodd;stroke:#000000;stroke-width:0.625;stroke-linejoin:round;stroke-opacity:1"
         d="M 8.7185878,4.0337352 -2.2072895,0.01601326 8.7185884,-4.0017078 c -1.7454984,2.3720609 -1.7354408,5.6174519 -6e-7,8.035443 z"
         transform="matrix(-1.1,0,0,-1.1,-1.1,0)" />
    </marker>
  </defs>
  <sodipodi:namedview
     id="base"
     pagecolor="#ffffff"
     bordercolor="#666666"
     borderopacity="1.0"
     inkscape:pageopacity="0.0"
     inkscape:pageshadow="2"
     inkscape:zoom="0.98994949"
     inkscape:cx="148.23716"
     inkscape:cy="890.2956"
     inkscape:document-units="px"
     inkscape:current-layer="layer1"
     showgrid="false"
     inkscape:window-width="1313"
     inkscape:window-height="744"
     inkscape:window-x="53"
     inkscape:window-y="24"
     inkscape:window-maximized="1" />
  <metadata
     id="metadata7">
    <rdf:RDF>
      <cc:Work
         rdf:about="">
        <dc:format>image/svg+xml</dc:format>
        <dc:type
           rdf:resource="http://purl.org/dc/dcmitype/StillImage" />
        <dc:title></dc:title>
      </cc:Work>
    </rdf:RDF>
  </metadata>
  <g
     inkscape:label="Layer 1"
     inkscape:groupmode="layer"
     id="layer1">
    <text
       xml:space="preserve"
       style="font-style:normal;font-weight:normal;font-size:15px;line-height:125%;font-family:sans-serif;letter-spacing:0px;word-spacing:0px;fill:#000000;fill-opacity:1;stroke:none;stroke-width:1px;stroke-linecap:butt;stroke-linejoin:miter;stroke-opacity:1"
       x="242.28743"
       y="66.453323"
       id="text4136"
       sodipodi:linespacing="125%"
       inkscape:export-xdpi="90"
       inkscape:export-ydpi="90"><tspan
         sodipodi:role="line"
         id="tspan4138"
         x="242.28743"
         y="66.453323">Determinism: GHZ</tspan></text>
    <text
       xml:space="preserve"
       style="font-style:normal;font-weight:normal;font-size:15px;line-height:125%;font-family:sans-serif;letter-spacing:0px;word-spacing:0px;fill:#000000;fill-opacity:1;stroke:none;stroke-width:1px;stroke-linecap:butt;stroke-linejoin:miter;stroke-opacity:1"
       x="259.60919"
       y="113.9305"
       id="text4140"
       sodipodi:linespacing="125%"
       inkscape:export-xdpi="90"
       inkscape:export-ydpi="90"><tspan
         sodipodi:role="line"
         id="tspan4142"
         x="259.60919"
         y="113.9305">GHZ using BM</tspan></text>
    <text
       xml:space="preserve"
       style="font-style:normal;font-weight:normal;font-size:15px;line-height:125%;font-family:sans-serif;letter-spacing:0px;word-spacing:0px;fill:#000000;fill-opacity:1;stroke:none;stroke-width:1px;stroke-linecap:butt;stroke-linejoin:miter;stroke-opacity:1;"
       x="264.65997"
       y="171.50919"
       id="text4148"
       sodipodi:linespacing="125%"
       inkscape:export-xdpi="90"
       inkscape:export-ydpi="90"><tspan
         sodipodi:role="line"
         id="tspan4150"
         x="264.65997"
         y="171.50919">GHZ phase space</tspan></text>
    <text
       xml:space="preserve"
       style="font-style:normal;font-weight:bold;font-size:15px;line-height:125%;font-family:sans-serif;letter-spacing:0px;word-spacing:0px;fill:#000000;fill-opacity:1;stroke:none;stroke-width:1px;stroke-linecap:butt;stroke-linejoin:miter;stroke-opacity:1;-inkscape-font-specification:'sans-serif Bold';font-stretch:normal;font-variant:normal;"
       x="235.36554"
       y="224.03712"
       id="text4152"
       sodipodi:linespacing="125%"
       inkscape:export-xdpi="90"
       inkscape:export-ydpi="90"><tspan
         sodipodi:role="line"
         id="tspan4154"
         x="235.36554"
         y="224.03712">Optimized GHZ</tspan></text>
    <text
       xml:space="preserve"
       style="font-style:normal;font-weight:bold;font-size:15px;line-height:125%;font-family:sans-serif;letter-spacing:0px;word-spacing:0px;fill:#000000;fill-opacity:1;stroke:none;stroke-width:1px;stroke-linecap:butt;stroke-linejoin:miter;stroke-opacity:1;-inkscape-font-specification:'sans-serif Bold';font-stretch:normal;font-variant:normal;"
       x="454.56863"
       y="226.05742"
       id="text4156"
       sodipodi:linespacing="125%"
       inkscape:export-xdpi="90"
       inkscape:export-ydpi="90"><tspan
         sodipodi:role="line"
         id="tspan4158"
         x="454.56863"
         y="226.05742">BM Simulator</tspan></text>
    <text
       xml:space="preserve"
       style="font-style:normal;font-weight:normal;font-size:15px;line-height:125%;font-family:sans-serif;letter-spacing:0px;word-spacing:0px;fill:#000000;fill-opacity:1;stroke:none;stroke-width:1px;stroke-linecap:butt;stroke-linejoin:miter;stroke-opacity:1;"
       x="242.43661"
       y="294.7478"
       id="text4160"
       sodipodi:linespacing="125%"
       inkscape:export-xdpi="90"
       inkscape:export-ydpi="90"><tspan
         sodipodi:role="line"
         id="tspan4162"
         x="242.43661"
         y="294.7478">Measurement Issue</tspan></text>
    <text
       xml:space="preserve"
       style="font-style:normal;font-weight:normal;font-size:15px;line-height:125%;font-family:sans-serif;letter-spacing:0px;word-spacing:0px;fill:#000000;fill-opacity:1;stroke:none;stroke-width:1px;stroke-linecap:butt;stroke-linejoin:miter;stroke-opacity:1;"
       x="447.49756"
       y="320.00162"
       id="text4164"
       sodipodi:linespacing="125%"
       inkscape:export-xdpi="90"
       inkscape:export-ydpi="90"><tspan
         sodipodi:role="line"
         id="tspan4166"
         x="447.49756"
         y="320.00162"
         style="-inkscape-font-specification:'sans-serif Bold';font-family:sans-serif;font-weight:bold;font-style:normal;font-stretch:normal;font-variant:normal">Classical Limit of BM</tspan></text>
    <text
       xml:space="preserve"
       style="font-style:normal;font-weight:normal;font-size:15px;line-height:125%;font-family:sans-serif;letter-spacing:0px;word-spacing:0px;fill:#000000;fill-opacity:1;stroke:none;stroke-width:1px;stroke-linecap:butt;stroke-linejoin:miter;stroke-opacity:1"
       x="388.61285"
       y="345.62308"
       id="text4168"
       sodipodi:linespacing="125%"
       inkscape:export-xdpi="90"
       inkscape:export-ydpi="90"><tspan
         sodipodi:role="line"
         id="tspan4170"
         x="388.61285"
         y="345.62308">RS Theory</tspan></text>
    <text
       xml:space="preserve"
       style="font-style:normal;font-weight:bold;font-size:15px;line-height:125%;font-family:sans-serif;letter-spacing:0px;word-spacing:0px;fill:#000000;fill-opacity:1;stroke:none;stroke-width:1px;stroke-linecap:butt;stroke-linejoin:miter;stroke-opacity:1;-inkscape-font-specification:'sans-serif Bold';font-stretch:normal;font-variant:normal;"
       x="360.62445"
       y="375.56"
       id="text4172"
       sodipodi:linespacing="125%"
       inkscape:export-xdpi="90"
       inkscape:export-ydpi="90"><tspan
         sodipodi:role="line"
         id="tspan4174"
         x="360.62445"
         y="375.56">Spins &amp; particle</tspan></text>
    <text
       xml:space="preserve"
       style="font-style:normal;font-weight:normal;font-size:15px;line-height:125%;font-family:sans-serif;letter-spacing:0px;word-spacing:0px;fill:#000000;fill-opacity:1;stroke:none;stroke-width:1px;stroke-linecap:butt;stroke-linejoin:miter;stroke-opacity:1;"
       x="359.61429"
       y="424.04733"
       id="text4176"
       sodipodi:linespacing="125%"
       inkscape:export-xdpi="90"
       inkscape:export-ydpi="90"><tspan
         sodipodi:role="line"
         id="tspan4178"
         x="359.61429"
         y="424.04733">Measurement Hamiltonian</tspan></text>
    <text
       xml:space="preserve"
       style="font-style:normal;font-weight:normal;font-size:15px;line-height:125%;font-family:sans-serif;letter-spacing:0px;word-spacing:0px;fill:#000000;fill-opacity:1;stroke:none;stroke-width:1px;stroke-linecap:butt;stroke-linejoin:miter;stroke-opacity:1"
       x="150.69325"
       y="353.1459"
       id="text4180"
       sodipodi:linespacing="125%"
       inkscape:export-xdpi="90"
       inkscape:export-ydpi="90"><tspan
         sodipodi:role="line"
         id="tspan4182"
         x="150.69325"
         y="353.1459">Contextuality: PM</tspan></text>
    <text
       xml:space="preserve"
       style="font-style:normal;font-variant:normal;font-weight:bold;font-stretch:normal;font-size:15px;line-height:125%;font-family:sans-serif;-inkscape-font-specification:'sans-serif Bold';letter-spacing:0px;word-spacing:0px;fill:#000000;fill-opacity:1;stroke:none;stroke-width:1px;stroke-linecap:butt;stroke-linejoin:miter;stroke-opacity:1"
       x="146.65265"
       y="399.61292"
       id="text4184"
       sodipodi:linespacing="125%"
       inkscape:export-xdpi="90"
       inkscape:export-ydpi="90"><tspan
         sodipodi:role="line"
         id="tspan4186"
         x="146.65265"
         y="399.61292">PM phase space</tspan></text>
    <text
       xml:space="preserve"
       style="font-style:normal;font-variant:normal;font-weight:bold;font-stretch:normal;font-size:15px;line-height:125%;font-family:sans-serif;-inkscape-font-specification:'sans-serif Bold';letter-spacing:0px;word-spacing:0px;fill:#000000;fill-opacity:1;stroke:none;stroke-width:1px;stroke-linecap:butt;stroke-linejoin:miter;stroke-opacity:1"
       x="278.95291"
       y="467.71158"
       id="text4188"
       sodipodi:linespacing="125%"
       inkscape:export-xdpi="90"
       inkscape:export-ydpi="90"><tspan
         sodipodi:role="line"
         id="tspan4190"
         x="278.95291"
         y="467.71158">Contextuality: GHZ</tspan></text>
    <text
       xml:space="preserve"
       style="font-style:normal;font-variant:normal;font-weight:bold;font-stretch:normal;font-size:15px;line-height:125%;font-family:sans-serif;-inkscape-font-specification:'sans-serif Bold';letter-spacing:0px;word-spacing:0px;fill:#000000;fill-opacity:1;stroke:none;stroke-width:1px;stroke-linecap:butt;stroke-linejoin:miter;stroke-opacity:1"
       x="310.26761"
       y="530.341"
       id="text4192"
       sodipodi:linespacing="125%"
       inkscape:export-xdpi="90"
       inkscape:export-ydpi="90"><tspan
         sodipodi:role="line"
         id="tspan4194"
         x="310.26761"
         y="530.341">Multiplicativity</tspan></text>
    <text
       xml:space="preserve"
       style="font-style:normal;font-variant:normal;font-weight:bold;font-stretch:normal;font-size:15px;line-height:125%;font-family:sans-serif;-inkscape-font-specification:'sans-serif Bold';letter-spacing:0px;word-spacing:0px;fill:#000000;fill-opacity:1;stroke:none;stroke-width:1px;stroke-linecap:butt;stroke-linejoin:miter;stroke-opacity:1"
       x="190.05948"
       y="579.83844"
       id="text4196"
       sodipodi:linespacing="125%"
       inkscape:export-xdpi="90"
       inkscape:export-ydpi="90"><tspan
         sodipodi:role="line"
         id="tspan4198"
         x="190.05948"
         y="579.83844">Memory Model</tspan></text>
    <text
       xml:space="preserve"
       style="font-style:normal;font-variant:normal;font-weight:bold;font-stretch:normal;font-size:15px;line-height:125%;font-family:sans-serif;-inkscape-font-specification:'sans-serif Bold';letter-spacing:0px;word-spacing:0px;fill:#000000;fill-opacity:1;stroke:none;stroke-width:1px;stroke-linecap:butt;stroke-linejoin:miter;stroke-opacity:1"
       x="333.50113"
       y="618.2243"
       id="text4200"
       sodipodi:linespacing="125%"
       inkscape:export-xdpi="90"
       inkscape:export-ydpi="90"><tspan
         sodipodi:role="line"
         id="tspan4202"
         x="333.50113"
         y="618.2243">Toy Model</tspan></text>
    <text
       xml:space="preserve"
       style="font-style:normal;font-variant:normal;font-weight:bold;font-stretch:normal;font-size:15px;line-height:125%;font-family:sans-serif;-inkscape-font-specification:'sans-serif Bold';letter-spacing:0px;word-spacing:0px;fill:#000000;fill-opacity:1;stroke:none;stroke-width:1px;stroke-linecap:butt;stroke-linejoin:miter;stroke-opacity:1"
       x="418.85904"
       y="577.31311"
       id="text4204"
       sodipodi:linespacing="125%"
       inkscape:export-xdpi="90"
       inkscape:export-ydpi="90"><tspan
         sodipodi:role="line"
         id="tspan4206"
         x="418.85904"
         y="577.31311">QM; Sequential Multiplicativity</tspan></text>
    <path
       style="fill:none;fill-rule:evenodd;stroke:#000000;stroke-width:1px;stroke-linecap:butt;stroke-linejoin:miter;stroke-opacity:1"
       d="m 312.55598,69.483778 1e-5,28.284267"
       id="path4220"
       inkscape:connector-curvature="0"
       sodipodi:nodetypes="cc"
       inkscape:export-xdpi="90"
       inkscape:export-ydpi="90" />
    <path
       style="fill:none;fill-rule:evenodd;stroke:#000000;stroke-width:1px;stroke-linecap:butt;stroke-linejoin:miter;stroke-opacity:1"
       d="M 240.79511,61.781365 C 207.0004,79.876022 178.20886,130.67584 255.56859,165.44826"
       id="path4222"
       inkscape:connector-curvature="0"
       sodipodi:nodetypes="cc"
       inkscape:export-xdpi="90"
       inkscape:export-ydpi="90" />
    <path
       style="fill:none;fill-rule:evenodd;stroke:#000000;stroke-width:1px;stroke-linecap:butt;stroke-linejoin:miter;stroke-opacity:1"
       d="M 241.42646,60.392405 C 183.61744,82.68391 140.92651,176.32878 199.58413,337.57521"
       id="path4224"
       inkscape:connector-curvature="0"
       sodipodi:nodetypes="cc"
       inkscape:export-xdpi="90"
       inkscape:export-ydpi="90" />
    <path
       style="fill:none;fill-rule:evenodd;stroke:#000000;stroke-width:1px;stroke-linecap:butt;stroke-linejoin:miter;stroke-opacity:1"
       d="m 341.17902,175.04472 c -3.21863,20.03283 -33.15006,23.81658 -51.14268,34.61567"
       id="path4226"
       inkscape:connector-curvature="0"
       sodipodi:nodetypes="cc"
       inkscape:export-xdpi="90"
       inkscape:export-ydpi="90" />
    <path
       style="fill:none;fill-rule:evenodd;stroke:#000000;stroke-width:1px;stroke-linecap:butt;stroke-linejoin:miter;stroke-opacity:1"
       d="m 342.94679,175.29726 c 17.17588,32.9347 121.57109,24.46586 171.06857,33.89395"
       id="path4228"
       inkscape:connector-curvature="0"
       sodipodi:nodetypes="cc"
       inkscape:export-xdpi="90"
       inkscape:export-ydpi="90" />
    <path
       style="fill:none;fill-rule:evenodd;stroke:#000000;stroke-width:1px;stroke-linecap:butt;stroke-linejoin:miter;stroke-opacity:1"
       d="m 201.20089,356.17637 c 10.24121,22.59135 -9.29428,19.37622 -17.1726,26.26397"
       id="path4230"
       inkscape:connector-curvature="0"
       sodipodi:nodetypes="cc"
       inkscape:export-xdpi="90"
       inkscape:export-ydpi="90" />
    <path
       style="fill:none;fill-rule:evenodd;stroke:#000000;stroke-width:1px;stroke-linecap:butt;stroke-linejoin:miter;stroke-opacity:1"
       d="m 208.27811,355.25288 c 1.68258,21.45843 32.30226,14.36863 55.32993,22.44651 23.69456,8.31182 38.3403,25.67138 41.40216,74.02305"
       id="path4232"
       inkscape:connector-curvature="0"
       sodipodi:nodetypes="csc"
       inkscape:export-xdpi="90"
       inkscape:export-ydpi="90" />
    <path
       style="fill:none;fill-rule:evenodd;stroke:#000000;stroke-width:1px;stroke-linecap:butt;stroke-linejoin:miter;stroke-opacity:1"
       d="m 350.52293,368.48893 c -39.81266,-4.49701 -43.14215,37.69132 -39.10519,83.77448"
       id="path4234"
       inkscape:connector-curvature="0"
       sodipodi:nodetypes="cc"
       inkscape:export-xdpi="90"
       inkscape:export-ydpi="90" />
    <path
       style="fill:none;fill-rule:evenodd;stroke:#000000;stroke-width:1px;stroke-linecap:butt;stroke-linejoin:miter;stroke-opacity:1"
       d="M 354.56354,415.9661 C 323.28685,399.36233 314.1679,385.88456 311.53542,406.84371"
       id="path4236"
       inkscape:connector-curvature="0"
       sodipodi:nodetypes="cc"
       inkscape:export-xdpi="90"
       inkscape:export-ydpi="90" />
    <path
       style="fill:none;fill-rule:evenodd;stroke:#000000;stroke-width:1px;stroke-linecap:butt;stroke-linejoin:miter;stroke-opacity:1"
       d="m 335.37065,297.77825 c 17.03191,20.51345 -48.79317,53.7487 15.15229,65.65992"
       id="path4238"
       inkscape:connector-curvature="0"
       sodipodi:nodetypes="cc"
       inkscape:export-xdpi="90"
       inkscape:export-ydpi="90" />
    <path
       style="fill:none;fill-rule:evenodd;stroke:#000000;stroke-width:1px;stroke-linecap:butt;stroke-linejoin:miter;stroke-opacity:1"
       d="m 396.98994,289.69703 c 242.19167,-16.45766 303.18232,-20.70223 302.02595,47.47629 -1.15636,68.17853 -80.9194,81.84299 -136.36093,80.81308"
       id="path4240"
       inkscape:connector-curvature="0"
       sodipodi:nodetypes="czc"
       inkscape:export-xdpi="90"
       inkscape:export-ydpi="90" />
    <path
       style="fill:none;fill-rule:evenodd;stroke:#000000;stroke-width:1px;stroke-linecap:butt;stroke-linejoin:miter;stroke-opacity:1"
       d="m 339.03245,297.39945 c 14.66333,12.20487 9.82717,43.27211 44.11123,44.77476"
       id="path4242"
       inkscape:connector-curvature="0"
       sodipodi:nodetypes="cc"
       inkscape:export-xdpi="90"
       inkscape:export-ydpi="90" />
    <path
       style="fill:none;fill-rule:evenodd;stroke:#000000;stroke-width:1px;stroke-linecap:butt;stroke-linejoin:miter;stroke-opacity:1"
       d="m 342.94679,296.89437 c 9.30403,8.542 77.75996,19.93022 97.47972,18.05648"
       id="path4244"
       inkscape:connector-curvature="0"
       sodipodi:nodetypes="cc"
       inkscape:export-xdpi="90"
       inkscape:export-ydpi="90" />
    <path
       style="fill:none;fill-rule:evenodd;stroke:#000000;stroke-width:1px;stroke-linecap:butt;stroke-linejoin:miter;stroke-opacity:1"
       d="m 308.09143,470.91533 c 1.10624,39.45123 80.04941,8.80506 70.78736,44.85027"
       id="path4246"
       inkscape:connector-curvature="0"
       sodipodi:nodetypes="cc"
       inkscape:export-xdpi="90"
       inkscape:export-ydpi="90" />
    <path
       style="fill:none;fill-rule:evenodd;stroke:#000000;stroke-width:1px;stroke-linecap:butt;stroke-linejoin:miter;stroke-opacity:1"
       d="m 371.97975,538.96321 c -4.88149,30.72944 -124.3001,-0.86045 -124.34159,27.74331"
       id="path4248"
       inkscape:connector-curvature="0"
       sodipodi:nodetypes="cc"
       inkscape:export-xdpi="90"
       inkscape:export-ydpi="90" />
    <path
       style="fill:none;fill-rule:evenodd;stroke:#000000;stroke-width:1px;stroke-linecap:butt;stroke-linejoin:miter;stroke-opacity:1"
       d="M 375.16249,539.25908 365.82602,603.072"
       id="path4250"
       inkscape:connector-curvature="0"
       sodipodi:nodetypes="cc"
       inkscape:export-xdpi="90"
       inkscape:export-ydpi="90" />
    <path
       style="fill:none;fill-rule:evenodd;stroke:#000000;stroke-width:1px;stroke-linecap:butt;stroke-linejoin:miter;stroke-opacity:1"
       d="m 378.27346,540.68765 c -0.15305,21.05688 82.65192,9.16595 84.27467,21.72571"
       id="path4252"
       inkscape:connector-curvature="0"
       sodipodi:nodetypes="cc"
       inkscape:export-xdpi="90"
       inkscape:export-ydpi="90" />
    <path
       style="fill:#000000"
       d="m 476.17316,356.03686 c -0.34551,-0.17342 -0.58577,-0.72699 -0.65044,-1.49857 -0.0527,-0.629 -0.0914,-0.70088 -0.74312,-1.37955 -0.73852,-0.76909 -0.82658,-1.04508 -0.52159,-1.63484 0.0913,-0.17648 0.25713,-0.36227 0.3686,-0.41286 0.11147,-0.0506 0.84074,-0.0951 1.6206,-0.0988 l 1.41793,-0.006 1.90722,-0.93401 c 2.62694,-1.28646 2.67708,-1.13742 -0.96813,-2.87808 -1.5418,-0.73625 -2.91982,-1.35248 -3.06227,-1.36943 -0.14246,-0.0169 -0.59794,0.01 -1.0122,0.0595 -1.28492,0.1541 -2.25236,-0.26386 -2.25236,-0.97306 0,-0.44091 0.16056,-0.72774 0.74682,-1.33411 0.44071,-0.45585 0.50538,-0.59278 0.60192,-1.2745 0.12024,-0.84902 0.42663,-1.38426 0.85377,-1.49147 0.562,-0.14105 1.45385,0.41648 1.81904,1.13716 0.46922,0.92596 0.62401,1.05816 2.11246,1.80402 0.80394,0.40285 1.48641,0.73246 1.51662,0.73246 0.0301,0 -0.071,-0.18563 -0.22504,-0.41252 -0.41532,-0.61201 -0.53433,-1.21261 -0.49087,-2.47733 0.039,-1.13612 0.0389,-1.13662 -0.33953,-1.64684 -0.55348,-0.74619 -1.00177,-1.68422 -1.28462,-2.68808 -0.33561,-1.19112 -0.36017,-3.30826 -0.0491,-4.23037 0.67003,-1.98597 2.02078,-3.59024 3.71217,-4.40893 1.77934,-0.86125 4.61464,-1.35618 6.90474,-1.20529 1.82356,0.12014 4.39652,0.82611 5.50073,1.50929 0.24953,0.15437 0.81593,0.65144 1.25868,1.10459 1.36779,1.39992 2.08078,3.18466 2.08516,5.2195 0.004,1.7734 -0.48116,3.23481 -1.4842,4.47246 l -0.50555,0.62379 0.0972,0.62379 c 0.15877,1.01835 0.0287,2.19157 -0.31022,2.79794 -0.16159,0.28911 -0.27212,0.54733 -0.24563,0.57382 0.0264,0.0265 0.67796,-0.27474 1.44773,-0.66939 l 1.39955,-0.71757 0.42036,-0.77369 c 0.44534,-0.81968 0.80862,-1.18843 1.37298,-1.39359 0.74749,-0.27176 1.23604,0.22114 1.44127,1.45408 0.12799,0.76897 0.18017,0.87152 0.74819,1.47035 0.63534,0.66982 0.76191,1.07327 0.49382,1.57419 -0.28588,0.53418 -0.91535,0.65133 -2.89712,0.53917 -0.23777,-0.0135 -1.26545,0.41253 -3.23239,1.33985 -2.78126,1.31122 -2.8838,1.37111 -2.8838,1.68425 0,0.31008 0.0918,0.36742 2.04151,1.27494 l 2.04152,0.95025 1.03329,-0.0743 c 1.26416,-0.0908 1.94725,0.13627 2.19277,0.72902 0.2027,0.48936 0.0152,0.90506 -0.69718,1.54553 -0.52462,0.47168 -0.56682,0.55096 -0.66598,1.25116 -0.18508,1.30691 -0.62571,1.78701 -1.40429,1.53006 -0.43943,-0.14503 -1.09321,-0.80852 -1.39857,-1.41935 -0.3158,-0.63172 -0.42641,-0.71188 -2.39898,-1.73857 l -1.75108,-0.91141 -0.64101,0.59347 c -0.78277,0.72471 -1.59367,1.05421 -3.03046,1.23139 -0.77072,0.095 -1.32749,0.0965 -2.09821,0.006 -1.44077,-0.17012 -2.21901,-0.48562 -3.01444,-1.22204 l -0.65318,-0.60474 -1.83716,0.98296 -1.83716,0.98295 -0.56439,0.86358 c -0.75134,1.14962 -1.38172,1.53261 -2.00645,1.21903 z m 0.78588,-0.77877 c 0.15894,-0.12501 0.49103,-0.54608 0.738,-0.93569 0.24697,-0.38962 0.54488,-0.79128 0.66202,-0.89258 0.11715,-0.1013 0.97856,-0.58176 1.91425,-1.0677 0.93569,-0.48593 1.71375,-0.89189 1.72901,-0.90213 0.0243,-0.0163 -0.43817,-1.40114 -0.50773,-1.52056 -0.0145,-0.0248 -0.7035,0.2906 -1.53115,0.70106 -2.06525,1.02424 -2.82164,1.26788 -3.44723,1.11035 -0.93517,-0.23547 -1.74363,-0.10141 -1.74363,0.28914 0,0.0968 0.30054,0.49051 0.66786,0.87499 0.63655,0.66625 0.67173,0.73361 0.75021,1.43624 0.0836,0.748 0.21475,1.13418 0.3853,1.13418 0.0518,0 0.22417,-0.10228 0.38309,-0.2273 z m 20.94504,0.0639 c 0.0746,-0.0899 0.18868,-0.53643 0.25357,-0.99239 0.11459,-0.80527 0.13783,-0.84935 0.81033,-1.5375 0.66014,-0.67552 0.68308,-0.71773 0.49318,-0.90734 -0.16669,-0.16644 -0.41573,-0.19942 -1.52746,-0.20226 l -1.32831,-0.003 -1.86638,-0.87559 c -1.0265,-0.48158 -1.9069,-0.8756 -1.95644,-0.8756 -0.0495,0 -0.0901,0.0978 -0.0901,0.21743 0,0.11959 -0.0991,0.44861 -0.22022,0.73116 l -0.2202,0.51373 0.70223,0.388 c 0.38623,0.2134 1.23161,0.65789 1.87864,0.98775 1.10647,0.5641 1.20178,0.64083 1.60324,1.29096 0.39909,0.64626 1.08752,1.42842 1.25726,1.42842 0.0413,0 0.13605,-0.0735 0.21063,-0.16338 z m -9.01062,-2.33191 c 1.49456,-0.38225 2.32584,-1.0474 2.9169,-2.33398 0.22155,-0.48227 0.2591,-0.76597 0.27653,-2.08918 0.017,-1.29107 0.0653,-1.67263 0.30829,-2.4336 0.15848,-0.49636 0.27372,-0.9169 0.25609,-0.93453 -0.0177,-0.0176 -0.11289,0.0312 -0.21171,0.10855 -0.26504,0.20742 -0.76107,1.68388 -0.99275,2.95496 -0.22898,1.2563 -0.39634,1.51359 -1.27567,1.96121 -1.16627,0.59366 -3.17491,0.78272 -4.75592,0.44762 -0.87821,-0.18613 -1.33067,-0.39733 -1.98325,-0.92576 -0.43436,-0.35174 -0.47706,-0.43596 -0.55313,-1.09147 -0.14198,-1.22331 -0.8639,-3.37608 -1.13216,-3.37608 -0.107,0 -0.0695,0.22187 0.13898,0.82228 0.24761,0.71304 0.28771,1.0332 0.30193,2.41011 0.0151,1.45545 0.041,1.63985 0.31113,2.21164 0.38723,0.81955 1.07925,1.58386 1.72699,1.90735 1.196,0.5973 3.15202,0.74853 4.66775,0.36088 z m -0.96449,-3.07537 c 0,-0.5398 -0.009,-0.55387 -0.34025,-0.55387 -0.33113,0 -0.34025,0.0147 -0.34025,0.54818 0,0.64201 0.0276,0.68435 0.39963,0.61324 0.25321,-0.0484 0.28087,-0.10824 0.28087,-0.60755 z m -1.8371,-0.0152 c -0.0293,-0.50841 -0.0674,-0.59545 -0.26112,-0.59545 -0.18706,0 -0.23309,0.0875 -0.26254,0.49914 -0.0354,0.49511 0.0781,0.6861 0.41025,0.69 0.10707,8.1e-4 0.13826,-0.16202 0.11341,-0.59369 z m 0.92976,0.0284 c 0,-0.55449 -0.007,-0.56709 -0.34025,-0.56709 -0.33268,0 -0.34025,0.0126 -0.34025,0.56709 0,0.55448 0.007,0.56708 0.34025,0.56708 0.33269,0 0.34025,-0.0126 0.34025,-0.56708 z m 1.67913,-0.0938 c 0.0329,-0.57402 0.0215,-0.6023 -0.22683,-0.56709 -0.2303,0.0326 -0.26553,0.10897 -0.296,0.6412 -0.0329,0.57402 -0.0215,0.6023 0.22684,0.56709 0.2303,-0.0327 0.26553,-0.10896 0.29599,-0.6412 z m 0.92947,-0.19418 c 0,-0.5582 -0.064,-0.63287 -0.42532,-0.49631 -0.21756,0.0822 -0.25518,0.17971 -0.25518,0.66128 l 0,0.56484 0.34025,-0.11861 c 0.30762,-0.10724 0.34025,-0.16585 0.34025,-0.6112 z m -4.30986,0.11416 c 0,-0.42888 -0.0422,-0.53 -0.25518,-0.61047 -0.35347,-0.13359 -0.42532,-0.0613 -0.42532,0.42802 0,0.46342 0.15941,0.69648 0.47636,0.69648 0.16655,0 0.20414,-0.0947 0.20414,-0.51403 z m -1.09191,-0.92828 c -0.32003,-0.234 -0.38251,-0.17546 -0.38251,0.35842 0,0.39379 0.0558,0.5432 0.25519,0.68352 0.25307,0.17807 0.25548,0.1751 0.29077,-0.35842 0.0272,-0.41038 -0.0116,-0.5725 -0.16345,-0.68352 z m 6.17355,0.38014 c 0.0364,-0.55275 -0.0217,-0.61434 -0.34646,-0.36778 -0.14015,0.10638 -0.19849,0.30939 -0.19849,0.69072 0,0.53444 0.002,0.53831 0.25519,0.3714 0.19227,-0.12708 0.26372,-0.29828 0.28976,-0.69434 z m -6.84884,-1.94338 c -0.0675,-0.0624 -0.15777,-0.29064 -0.20069,-0.50726 -0.0707,-0.35686 -0.67656,-1.13729 -0.88288,-1.13729 -0.0464,0 0.0382,0.35046 0.18783,0.77879 0.14966,0.42834 0.35885,1.23219 0.46487,1.78632 0.28373,1.48301 0.42785,1.55853 0.49682,0.26032 0.0367,-0.69066 0.0134,-1.1075 -0.0659,-1.18088 z m 7.48798,1.37608 c 0.0414,-0.33107 0.22173,-1.10757 0.4008,-1.72557 0.17908,-0.618 0.29906,-1.14945 0.26663,-1.18099 -0.12644,-0.12299 -0.71734,0.74007 -0.71734,1.04773 0,0.17959 -0.0746,0.34836 -0.17013,0.38503 -0.13555,0.052 -0.17013,0.29612 -0.17013,1.20121 0,0.95631 0.0249,1.11526 0.15749,1.00522 0.0866,-0.0719 0.19132,-0.40156 0.23268,-0.73263 z m -4.92686,-0.1852 c 0,-0.65026 -0.0126,-0.6805 -0.28354,-0.6805 -0.26764,0 -0.28354,0.0346 -0.28354,0.6159 0,0.54855 0.0279,0.62129 0.25519,0.66506 0.14036,0.027 0.26794,0.0561 0.28354,0.0646 0.0156,0.008 0.0284,-0.29078 0.0284,-0.66506 z m 0.90734,0 c 0,-0.6805 0,-0.6805 -0.34025,-0.6805 -0.33553,0 -0.34025,0.008 -0.34025,0.60489 0,0.68074 0.0414,0.75612 0.41586,0.75612 0.24784,0 0.26464,-0.0432 0.26464,-0.68051 z m 0.88465,-0.0284 0.034,-0.65215 -0.3459,0 c -0.34237,0 -0.34592,0.006 -0.34592,0.60489 0,0.67487 0.0566,0.78059 0.3923,0.73255 0.1976,-0.0283 0.23648,-0.12864 0.26551,-0.68529 z m 0.81661,-0.0284 c 0,-0.58977 -0.0155,-0.6238 -0.28354,-0.6238 -0.26808,0 -0.28354,0.034 -0.28354,0.6238 0,0.58977 0.0155,0.62379 0.28354,0.62379 0.26807,0 0.28354,-0.034 0.28354,-0.62379 z m -3.40252,-0.11342 c 0,-0.61749 -0.003,-0.6238 -0.34024,-0.6238 -0.32531,0 -0.34026,0.0214 -0.34026,0.4877 0,0.52248 0.14883,0.75989 0.47636,0.75989 0.17184,0 0.20414,-0.0987 0.20414,-0.62379 z m 4.17376,0.48769 c 0.0748,-0.0748 0.1361,-0.35556 0.1361,-0.62379 0,-0.46627 -0.0149,-0.4877 -0.34025,-0.4877 -0.33682,0 -0.34025,0.006 -0.34025,0.6238 0,0.52508 0.0323,0.62379 0.20415,0.62379 0.11228,0 0.26539,-0.0613 0.34025,-0.1361 z m -5.01271,-1.18733 c -0.006,-0.0106 -0.15239,-0.0543 -0.3238,-0.0974 -0.30153,-0.0757 -0.31167,-0.0633 -0.31167,0.38131 0,0.34774 0.0621,0.50322 0.25519,0.63909 0.25234,0.17754 0.25595,0.1735 0.3238,-0.36218 0.0377,-0.29795 0.0631,-0.55033 0.0565,-0.56086 z m 5.9209,0.31804 c 0.0348,-0.46688 -0.0242,-0.5313 -0.36585,-0.40019 -0.13059,0.0502 -0.17941,0.2236 -0.17941,0.63763 0,0.5642 0.002,0.56743 0.25519,0.40019 0.18297,-0.12089 0.26506,-0.30133 0.29007,-0.63763 z m -8.89448,-0.49739 c -0.0352,-0.20273 -0.1378,-0.63764 -0.22788,-0.96648 l -0.16377,-0.59787 -2.06599,-1.02453 c -1.13629,-0.56349 -2.23122,-1.13657 -2.43318,-1.27351 -0.20195,-0.13694 -0.51742,-0.53025 -0.70106,-0.87405 -0.34265,-0.64146 -0.70851,-1.04569 -1.05809,-1.16905 -0.2972,-0.10488 -0.52663,0.33622 -0.6128,1.17816 -0.0713,0.69627 -0.10218,0.75597 -0.68091,1.31502 -1.04603,1.01047 -0.75319,1.28941 1.26845,1.20823 l 1.13085,-0.0454 2.6653,1.29761 c 1.46592,0.71369 2.72782,1.30276 2.80424,1.30905 0.0953,0.008 0.11883,-0.10421 0.0748,-0.35717 z m 14.69745,-1.21255 c 2.32706,-1.09734 2.21174,-1.06756 3.94138,-1.0181 0.82418,0.0235 1.16553,-0.0976 1.16553,-0.41372 0,-0.0824 -0.27297,-0.44615 -0.60658,-0.80838 -0.54378,-0.59043 -0.61428,-0.72569 -0.681,-1.3065 -0.0917,-0.79842 -0.27584,-1.2235 -0.53,-1.2235 -0.33248,0 -0.78651,0.45131 -1.12408,1.11734 -0.17859,0.35234 -0.44465,0.75024 -0.59126,0.8842 -0.1466,0.13397 -1.23806,0.72843 -2.42546,1.32102 l -2.1589,1.07744 -0.1945,0.61704 c -0.10699,0.33938 -0.19451,0.77779 -0.19451,0.97425 l 0,0.35721 0.59544,-0.26844 c 0.3275,-0.14764 1.58927,-0.73707 2.80394,-1.30986 z m -6.34823,1.13462 c 0.34895,-0.10203 0.40045,-0.16515 0.42576,-0.52175 0.0701,-0.98679 0.77548,-1.67163 2.38319,-2.31366 0.51566,-0.20592 1.05948,-0.47031 1.2085,-0.58752 0.60103,-0.47278 0.79307,-1.91339 0.44708,-3.35383 -0.28524,-1.18755 -0.25888,-3.20168 0.053,-4.05111 0.26244,-0.71472 0.34064,-2.08221 0.13106,-2.29178 -0.0776,-0.0777 -0.0252,-0.19916 0.16129,-0.3744 l 0.27621,-0.25948 0.19191,0.37111 c 0.25534,0.49378 0.17409,2.03752 -0.16005,3.04075 -0.24723,0.7423 -0.32271,1.97734 -0.1386,2.26801 0.15665,0.24732 0.87811,-0.91961 1.2046,-1.94839 0.51244,-1.61468 0.33594,-3.60249 -0.46424,-5.22861 -0.39097,-0.79452 -1.68906,-2.22432 -2.39504,-2.63806 -1.18161,-0.69247 -4.16144,-1.39933 -5.89898,-1.39933 -1.69393,0 -4.19236,0.49509 -5.59174,1.10804 -2.15762,0.9451 -3.73733,3.44701 -3.74029,5.92383 -0.002,1.31518 0.65394,3.41274 1.34329,4.29832 l 0.21174,0.27202 0.0808,-0.64677 c 0.0913,-0.73105 0.0182,-1.31643 -0.27746,-2.22232 -0.28561,-0.87497 -0.38333,-1.91341 -0.2327,-2.47283 0.15676,-0.58217 0.30614,-0.67998 0.59593,-0.39018 0.19346,0.19345 0.20636,0.26495 0.0878,0.48646 -0.1834,0.34267 -0.074,1.36713 0.24442,2.2892 0.31601,0.915 0.31803,2.40427 0.006,4.05696 -0.17837,0.94323 -0.20316,1.32908 -0.11924,1.85547 0.1942,1.21805 0.40421,1.43927 1.85532,1.95443 1.44392,0.5126 2.32016,1.37568 2.32474,2.28983 0.002,0.41734 0.0681,0.4594 0.93853,0.5984 0.76397,0.122 4.32821,0.039 4.84762,-0.11281 z m -4.12716,-1.5419 c -0.38735,-0.38736 -0.37612,-1.6813 0.0224,-2.58225 0.22366,-0.50561 0.8762,-1.327 1.05423,-1.327 0.0559,0 0.10167,0.73411 0.10167,1.63135 l 0,1.63135 -0.45399,0.41016 c -0.52312,0.4726 -0.49673,0.46399 -0.72433,0.23639 z m 2.08598,-0.23639 -0.454,-0.41016 0,-1.63135 c 0,-0.91094 0.0459,-1.63135 0.10379,-1.63135 0.21415,0 1.0201,1.05316 1.192,1.55763 0.31978,0.93851 0.14534,2.52538 -0.27762,2.52538 -0.0606,0 -0.31447,-0.18457 -0.56417,-0.41015 z m -5.42397,-3.1831 c -0.49648,-0.24465 -0.8285,-0.71069 -1.20855,-1.69637 -0.27634,-0.71669 -0.2968,-0.85624 -0.17823,-1.21552 0.20298,-0.61505 0.66692,-0.93793 1.56053,-1.08603 1.38601,-0.22971 2.27414,-0.30627 2.51579,-0.21689 0.35027,0.12958 0.69169,0.76545 0.69217,1.28916 4e-4,0.57001 -0.61024,1.64838 -1.4215,2.50978 -0.52629,0.55883 -0.61115,0.60641 -1.07746,0.60403 -0.27839,-0.002 -0.67563,-0.0861 -0.88275,-0.18816 z m 8.01525,0.0184 c -0.62356,-0.33872 -1.90733,-2.34585 -1.90999,-2.9862 -0.002,-0.38396 0.32947,-1.02474 0.60588,-1.17267 0.29762,-0.15929 0.97036,-0.13581 2.31919,0.0809 1.14712,0.18433 1.53366,0.37019 1.78643,0.85898 0.24055,0.4652 0.20448,0.81544 -0.17884,1.73622 -0.33378,0.80177 -0.70235,1.26759 -1.20887,1.52781 -0.33998,0.17468 -1.051,0.15203 -1.4138,-0.0451 z"
       id="path4265-8"
       inkscape:connector-curvature="0"
       inkscape:export-xdpi="90"
       inkscape:export-ydpi="90" />
    <path
       style="fill:#000000"
       d="m 630.31533,327.76594 c -0.34551,-0.17342 -0.58577,-0.72699 -0.65044,-1.49857 -0.0527,-0.629 -0.0914,-0.70088 -0.74312,-1.37955 -0.73852,-0.76909 -0.82658,-1.04508 -0.52159,-1.63484 0.0913,-0.17648 0.25713,-0.36227 0.3686,-0.41286 0.11147,-0.0506 0.84074,-0.0951 1.6206,-0.0988 l 1.41793,-0.006 1.90722,-0.93401 c 2.62694,-1.28646 2.67708,-1.13742 -0.96813,-2.87808 -1.5418,-0.73625 -2.91982,-1.35248 -3.06227,-1.36943 -0.14246,-0.0169 -0.59794,0.01 -1.0122,0.0595 -1.28492,0.1541 -2.25236,-0.26386 -2.25236,-0.97306 0,-0.44091 0.16056,-0.72774 0.74682,-1.33411 0.44071,-0.45585 0.50538,-0.59278 0.60192,-1.2745 0.12024,-0.84902 0.42663,-1.38426 0.85377,-1.49147 0.562,-0.14105 1.45385,0.41648 1.81904,1.13716 0.46922,0.92596 0.62401,1.05816 2.11246,1.80402 0.80394,0.40285 1.48641,0.73246 1.51662,0.73246 0.0301,0 -0.071,-0.18563 -0.22504,-0.41252 -0.41532,-0.61201 -0.53433,-1.21261 -0.49087,-2.47733 0.039,-1.13612 0.0389,-1.13662 -0.33953,-1.64684 -0.55348,-0.74619 -1.00177,-1.68422 -1.28462,-2.68808 -0.33561,-1.19112 -0.36017,-3.30826 -0.0491,-4.23037 0.67003,-1.98597 2.02078,-3.59024 3.71217,-4.40893 1.77934,-0.86125 4.61464,-1.35618 6.90474,-1.20529 1.82356,0.12014 4.39652,0.82611 5.50073,1.50929 0.24953,0.15437 0.81593,0.65144 1.25868,1.10459 1.36779,1.39992 2.08078,3.18466 2.08516,5.2195 0.004,1.7734 -0.48116,3.23481 -1.4842,4.47246 l -0.50555,0.62379 0.0972,0.62379 c 0.15877,1.01835 0.0287,2.19157 -0.31022,2.79794 -0.16159,0.28911 -0.27212,0.54733 -0.24563,0.57382 0.0264,0.0265 0.67796,-0.27474 1.44773,-0.66939 l 1.39955,-0.71757 0.42036,-0.77369 c 0.44534,-0.81968 0.80862,-1.18843 1.37298,-1.39359 0.74749,-0.27176 1.23604,0.22114 1.44127,1.45408 0.12799,0.76897 0.18017,0.87152 0.74819,1.47035 0.63534,0.66982 0.76191,1.07327 0.49382,1.57419 -0.28588,0.53418 -0.91535,0.65133 -2.89712,0.53917 -0.23777,-0.0135 -1.26545,0.41253 -3.23239,1.33985 -2.78126,1.31122 -2.8838,1.37111 -2.8838,1.68425 0,0.31008 0.0918,0.36742 2.04151,1.27494 l 2.04152,0.95025 1.03329,-0.0743 c 1.26416,-0.0908 1.94725,0.13627 2.19277,0.72902 0.2027,0.48936 0.0152,0.90506 -0.69718,1.54553 -0.52462,0.47168 -0.56682,0.55096 -0.66598,1.25116 -0.18508,1.30691 -0.62571,1.78701 -1.40429,1.53006 -0.43943,-0.14503 -1.09321,-0.80852 -1.39857,-1.41935 -0.3158,-0.63172 -0.42641,-0.71188 -2.39898,-1.73857 l -1.75108,-0.91141 -0.64101,0.59347 c -0.78277,0.72471 -1.59367,1.05421 -3.03046,1.23139 -0.77072,0.095 -1.32749,0.0965 -2.09821,0.006 -1.44077,-0.17012 -2.21901,-0.48562 -3.01444,-1.22204 l -0.65318,-0.60474 -1.83716,0.98296 -1.83716,0.98295 -0.56439,0.86358 c -0.75134,1.14962 -1.38172,1.53261 -2.00645,1.21903 z m 0.78588,-0.77877 c 0.15894,-0.12501 0.49103,-0.54608 0.738,-0.93569 0.24697,-0.38962 0.54488,-0.79128 0.66202,-0.89258 0.11715,-0.1013 0.97856,-0.58176 1.91425,-1.0677 0.93569,-0.48593 1.71375,-0.89189 1.72901,-0.90213 0.0243,-0.0163 -0.43817,-1.40114 -0.50773,-1.52056 -0.0145,-0.0248 -0.7035,0.2906 -1.53115,0.70106 -2.06525,1.02424 -2.82164,1.26788 -3.44723,1.11035 -0.93517,-0.23547 -1.74363,-0.10141 -1.74363,0.28914 0,0.0968 0.30054,0.49051 0.66786,0.87499 0.63655,0.66625 0.67173,0.73361 0.75021,1.43624 0.0836,0.748 0.21475,1.13418 0.3853,1.13418 0.0518,0 0.22417,-0.10228 0.38309,-0.2273 z m 20.94504,0.0639 c 0.0746,-0.0899 0.18868,-0.53643 0.25357,-0.99239 0.11459,-0.80527 0.13783,-0.84935 0.81033,-1.5375 0.66014,-0.67552 0.68308,-0.71773 0.49318,-0.90734 -0.16669,-0.16644 -0.41573,-0.19942 -1.52746,-0.20226 l -1.32831,-0.003 -1.86638,-0.87559 c -1.0265,-0.48158 -1.9069,-0.8756 -1.95644,-0.8756 -0.0495,0 -0.0901,0.0978 -0.0901,0.21743 0,0.11959 -0.0991,0.44861 -0.22022,0.73116 l -0.2202,0.51373 0.70223,0.388 c 0.38623,0.2134 1.23161,0.65789 1.87864,0.98775 1.10647,0.5641 1.20178,0.64083 1.60324,1.29096 0.39909,0.64626 1.08752,1.42842 1.25726,1.42842 0.0413,0 0.13605,-0.0735 0.21063,-0.16338 z m -9.01062,-2.33191 c 1.49456,-0.38225 2.32584,-1.0474 2.9169,-2.33398 0.22155,-0.48227 0.2591,-0.76597 0.27653,-2.08918 0.017,-1.29107 0.0653,-1.67263 0.30829,-2.4336 0.15848,-0.49636 0.27372,-0.9169 0.25609,-0.93453 -0.0177,-0.0176 -0.11289,0.0312 -0.21171,0.10855 -0.26504,0.20742 -0.76107,1.68388 -0.99275,2.95496 -0.22898,1.2563 -0.39634,1.51359 -1.27567,1.96121 -1.16627,0.59366 -3.17491,0.78272 -4.75592,0.44762 -0.87821,-0.18613 -1.33067,-0.39733 -1.98325,-0.92576 -0.43436,-0.35174 -0.47706,-0.43596 -0.55313,-1.09147 -0.14198,-1.22331 -0.8639,-3.37608 -1.13216,-3.37608 -0.107,0 -0.0695,0.22187 0.13898,0.82228 0.24761,0.71304 0.28771,1.0332 0.30193,2.41011 0.0151,1.45545 0.041,1.63985 0.31113,2.21164 0.38723,0.81955 1.07925,1.58386 1.72699,1.90735 1.196,0.5973 3.15202,0.74853 4.66775,0.36088 z m -0.96449,-3.07537 c 0,-0.5398 -0.009,-0.55387 -0.34025,-0.55387 -0.33113,0 -0.34025,0.0147 -0.34025,0.54818 0,0.64201 0.0276,0.68435 0.39963,0.61324 0.25321,-0.0484 0.28087,-0.10824 0.28087,-0.60755 z m -1.8371,-0.0152 c -0.0293,-0.50841 -0.0674,-0.59545 -0.26112,-0.59545 -0.18706,0 -0.23309,0.0875 -0.26254,0.49914 -0.0354,0.49511 0.0781,0.6861 0.41025,0.69 0.10707,8.1e-4 0.13826,-0.16202 0.11341,-0.59369 z m 0.92976,0.0284 c 0,-0.55449 -0.007,-0.56709 -0.34025,-0.56709 -0.33268,0 -0.34025,0.0126 -0.34025,0.56709 0,0.55448 0.007,0.56708 0.34025,0.56708 0.33269,0 0.34025,-0.0126 0.34025,-0.56708 z m 1.67913,-0.0938 c 0.0329,-0.57402 0.0215,-0.6023 -0.22683,-0.56709 -0.2303,0.0326 -0.26553,0.10897 -0.296,0.6412 -0.0329,0.57402 -0.0215,0.6023 0.22684,0.56709 0.2303,-0.0327 0.26553,-0.10896 0.29599,-0.6412 z m 0.92947,-0.19418 c 0,-0.5582 -0.064,-0.63287 -0.42532,-0.49631 -0.21756,0.0822 -0.25518,0.17971 -0.25518,0.66128 l 0,0.56484 0.34025,-0.11861 c 0.30762,-0.10724 0.34025,-0.16585 0.34025,-0.6112 z m -4.30986,0.11416 c 0,-0.42888 -0.0422,-0.53 -0.25518,-0.61047 -0.35347,-0.13359 -0.42532,-0.0613 -0.42532,0.42802 0,0.46342 0.15941,0.69648 0.47636,0.69648 0.16655,0 0.20414,-0.0947 0.20414,-0.51403 z m -1.09191,-0.92828 c -0.32003,-0.234 -0.38251,-0.17546 -0.38251,0.35842 0,0.39379 0.0558,0.5432 0.25519,0.68352 0.25307,0.17807 0.25548,0.1751 0.29077,-0.35842 0.0272,-0.41038 -0.0116,-0.5725 -0.16345,-0.68352 z m 6.17355,0.38014 c 0.0364,-0.55275 -0.0217,-0.61434 -0.34646,-0.36778 -0.14015,0.10638 -0.19849,0.30939 -0.19849,0.69072 0,0.53444 0.002,0.53831 0.25519,0.3714 0.19227,-0.12708 0.26372,-0.29828 0.28976,-0.69434 z m -6.84884,-1.94338 c -0.0675,-0.0624 -0.15777,-0.29064 -0.20069,-0.50726 -0.0707,-0.35686 -0.67656,-1.13729 -0.88288,-1.13729 -0.0464,0 0.0382,0.35046 0.18783,0.77879 0.14966,0.42834 0.35885,1.23219 0.46487,1.78632 0.28373,1.48301 0.42785,1.55853 0.49682,0.26032 0.0367,-0.69066 0.0134,-1.1075 -0.0659,-1.18088 z m 7.48798,1.37608 c 0.0414,-0.33107 0.22173,-1.10757 0.4008,-1.72557 0.17908,-0.618 0.29906,-1.14945 0.26663,-1.18099 -0.12644,-0.12299 -0.71734,0.74007 -0.71734,1.04773 0,0.17959 -0.0746,0.34836 -0.17013,0.38503 -0.13555,0.052 -0.17013,0.29612 -0.17013,1.20121 0,0.95631 0.0249,1.11526 0.15749,1.00522 0.0866,-0.0719 0.19132,-0.40156 0.23268,-0.73263 z m -4.92686,-0.1852 c 0,-0.65026 -0.0126,-0.6805 -0.28354,-0.6805 -0.26764,0 -0.28354,0.0346 -0.28354,0.6159 0,0.54855 0.0279,0.62129 0.25519,0.66506 0.14036,0.027 0.26794,0.0561 0.28354,0.0646 0.0156,0.008 0.0284,-0.29078 0.0284,-0.66506 z m 0.90734,0 c 0,-0.6805 0,-0.6805 -0.34025,-0.6805 -0.33553,0 -0.34025,0.008 -0.34025,0.60489 0,0.68074 0.0414,0.75612 0.41586,0.75612 0.24784,0 0.26464,-0.0432 0.26464,-0.68051 z m 0.88465,-0.0284 0.034,-0.65215 -0.3459,0 c -0.34237,0 -0.34592,0.006 -0.34592,0.60489 0,0.67487 0.0566,0.78059 0.3923,0.73255 0.1976,-0.0283 0.23648,-0.12864 0.26551,-0.68529 z m 0.81661,-0.0284 c 0,-0.58977 -0.0155,-0.6238 -0.28354,-0.6238 -0.26808,0 -0.28354,0.034 -0.28354,0.6238 0,0.58977 0.0155,0.62379 0.28354,0.62379 0.26807,0 0.28354,-0.034 0.28354,-0.62379 z m -3.40252,-0.11342 c 0,-0.61749 -0.003,-0.6238 -0.34024,-0.6238 -0.32531,0 -0.34026,0.0214 -0.34026,0.4877 0,0.52248 0.14883,0.75989 0.47636,0.75989 0.17184,0 0.20414,-0.0987 0.20414,-0.62379 z M 643.6363,320.5 c 0.0748,-0.0748 0.1361,-0.35556 0.1361,-0.62379 0,-0.46627 -0.0149,-0.4877 -0.34025,-0.4877 -0.33682,0 -0.34025,0.006 -0.34025,0.6238 0,0.52508 0.0323,0.62379 0.20415,0.62379 0.11228,0 0.26539,-0.0613 0.34025,-0.1361 z m -5.01271,-1.18733 c -0.006,-0.0106 -0.15239,-0.0543 -0.3238,-0.0974 -0.30153,-0.0757 -0.31167,-0.0633 -0.31167,0.38131 0,0.34774 0.0621,0.50322 0.25519,0.63909 0.25234,0.17754 0.25595,0.1735 0.3238,-0.36218 0.0377,-0.29795 0.0631,-0.55033 0.0565,-0.56086 z m 5.9209,0.31804 c 0.0348,-0.46688 -0.0242,-0.5313 -0.36585,-0.40019 -0.13059,0.0502 -0.17941,0.2236 -0.17941,0.63763 0,0.5642 0.002,0.56743 0.25519,0.40019 0.18297,-0.12089 0.26506,-0.30133 0.29007,-0.63763 z m -8.89448,-0.49739 c -0.0352,-0.20273 -0.1378,-0.63764 -0.22788,-0.96648 l -0.16377,-0.59787 -2.06599,-1.02453 c -1.13629,-0.56349 -2.23122,-1.13657 -2.43318,-1.27351 -0.20195,-0.13694 -0.51742,-0.53025 -0.70106,-0.87405 -0.34265,-0.64146 -0.70851,-1.04569 -1.05809,-1.16905 -0.2972,-0.10488 -0.52663,0.33622 -0.6128,1.17816 -0.0713,0.69627 -0.10218,0.75597 -0.68091,1.31502 -1.04603,1.01047 -0.75319,1.28941 1.26845,1.20823 l 1.13085,-0.0454 2.6653,1.29761 c 1.46592,0.71369 2.72782,1.30276 2.80424,1.30905 0.0953,0.008 0.11883,-0.10421 0.0748,-0.35717 z m 14.69745,-1.21255 c 2.32706,-1.09734 2.21174,-1.06756 3.94138,-1.0181 0.82418,0.0235 1.16553,-0.0976 1.16553,-0.41372 0,-0.0824 -0.27297,-0.44615 -0.60658,-0.80838 -0.54378,-0.59043 -0.61428,-0.72569 -0.681,-1.3065 -0.0917,-0.79842 -0.27584,-1.2235 -0.53,-1.2235 -0.33248,0 -0.78651,0.45131 -1.12408,1.11734 -0.17859,0.35234 -0.44465,0.75024 -0.59126,0.8842 -0.1466,0.13397 -1.23806,0.72843 -2.42546,1.32102 l -2.1589,1.07744 -0.1945,0.61704 c -0.10699,0.33938 -0.19451,0.77779 -0.19451,0.97425 l 0,0.35721 0.59544,-0.26844 c 0.3275,-0.14764 1.58927,-0.73707 2.80394,-1.30986 z m -6.34823,1.13462 c 0.34895,-0.10203 0.40045,-0.16515 0.42576,-0.52175 0.0701,-0.98679 0.77548,-1.67163 2.38319,-2.31366 0.51566,-0.20592 1.05948,-0.47031 1.2085,-0.58752 0.60103,-0.47278 0.79307,-1.91339 0.44708,-3.35383 -0.28524,-1.18755 -0.25888,-3.20168 0.053,-4.05111 0.26244,-0.71472 0.34064,-2.08221 0.13106,-2.29178 -0.0776,-0.0777 -0.0252,-0.19916 0.16129,-0.3744 l 0.27621,-0.25948 0.19191,0.37111 c 0.25534,0.49378 0.17409,2.03752 -0.16005,3.04075 -0.24723,0.7423 -0.32271,1.97734 -0.1386,2.26801 0.15665,0.24732 0.87811,-0.91961 1.2046,-1.94839 0.51244,-1.61468 0.33594,-3.60249 -0.46424,-5.22861 -0.39097,-0.79452 -1.68906,-2.22432 -2.39504,-2.63806 -1.18161,-0.69247 -4.16144,-1.39933 -5.89898,-1.39933 -1.69393,0 -4.19236,0.49509 -5.59174,1.10804 -2.15762,0.9451 -3.73733,3.44701 -3.74029,5.92383 -0.002,1.31518 0.65394,3.41274 1.34329,4.29832 l 0.21174,0.27202 0.0808,-0.64677 c 0.0913,-0.73105 0.0182,-1.31643 -0.27746,-2.22232 -0.28561,-0.87497 -0.38333,-1.91341 -0.2327,-2.47283 0.15676,-0.58217 0.30614,-0.67998 0.59593,-0.39018 0.19346,0.19345 0.20636,0.26495 0.0878,0.48646 -0.1834,0.34267 -0.074,1.36713 0.24442,2.2892 0.31601,0.915 0.31803,2.40427 0.006,4.05696 -0.17837,0.94323 -0.20316,1.32908 -0.11924,1.85547 0.1942,1.21805 0.40421,1.43927 1.85532,1.95443 1.44392,0.5126 2.32016,1.37568 2.32474,2.28983 0.002,0.41734 0.0681,0.4594 0.93853,0.5984 0.76397,0.122 4.32821,0.039 4.84762,-0.11281 z m -4.12716,-1.5419 c -0.38735,-0.38736 -0.37612,-1.6813 0.0224,-2.58225 0.22366,-0.50561 0.8762,-1.327 1.05423,-1.327 0.0559,0 0.10167,0.73411 0.10167,1.63135 l 0,1.63135 -0.45399,0.41016 c -0.52312,0.4726 -0.49673,0.46399 -0.72433,0.23639 z m 2.08598,-0.23639 -0.454,-0.41016 0,-1.63135 c 0,-0.91094 0.0459,-1.63135 0.10379,-1.63135 0.21415,0 1.0201,1.05316 1.192,1.55763 0.31978,0.93851 0.14534,2.52538 -0.27762,2.52538 -0.0606,0 -0.31447,-0.18457 -0.56417,-0.41015 z m -5.42397,-3.1831 c -0.49648,-0.24465 -0.8285,-0.71069 -1.20855,-1.69637 -0.27634,-0.71669 -0.2968,-0.85624 -0.17823,-1.21552 0.20298,-0.61505 0.66692,-0.93793 1.56053,-1.08603 1.38601,-0.22971 2.27414,-0.30627 2.51579,-0.21689 0.35027,0.12958 0.69169,0.76545 0.69217,1.28916 4e-4,0.57001 -0.61024,1.64838 -1.4215,2.50978 -0.52629,0.55883 -0.61115,0.60641 -1.07746,0.60403 -0.27839,-0.002 -0.67563,-0.0861 -0.88275,-0.18816 z m 8.01525,0.0184 c -0.62356,-0.33872 -1.90733,-2.34585 -1.90999,-2.9862 -0.002,-0.38396 0.32947,-1.02474 0.60588,-1.17267 0.29762,-0.15929 0.97036,-0.13581 2.31919,0.0809 1.14712,0.18433 1.53366,0.37019 1.78643,0.85898 0.24055,0.4652 0.20448,0.81544 -0.17884,1.73622 -0.33378,0.80177 -0.70235,1.26759 -1.20887,1.52781 -0.33998,0.17468 -1.051,0.15203 -1.4138,-0.0451 z"
       id="path4265-8-6"
       inkscape:connector-curvature="0"
       inkscape:export-xdpi="90"
       inkscape:export-ydpi="90" />
    <path
       style="fill:#000000"
       d="m 171.88747,435.20466 c -0.34551,-0.17342 -0.58577,-0.72699 -0.65044,-1.49857 -0.0527,-0.629 -0.0914,-0.70088 -0.74312,-1.37955 -0.73852,-0.76909 -0.82658,-1.04508 -0.52159,-1.63484 0.0913,-0.17648 0.25713,-0.36227 0.3686,-0.41286 0.11147,-0.0506 0.84074,-0.0951 1.6206,-0.0988 l 1.41793,-0.006 1.90722,-0.93401 c 2.62694,-1.28646 2.67708,-1.13742 -0.96813,-2.87808 -1.5418,-0.73625 -2.91982,-1.35248 -3.06227,-1.36943 -0.14246,-0.0169 -0.59794,0.01 -1.0122,0.0595 -1.28492,0.1541 -2.25236,-0.26386 -2.25236,-0.97306 0,-0.44091 0.16056,-0.72774 0.74682,-1.33411 0.44071,-0.45585 0.50538,-0.59278 0.60192,-1.2745 0.12024,-0.84902 0.42663,-1.38426 0.85377,-1.49147 0.562,-0.14105 1.45385,0.41648 1.81904,1.13716 0.46922,0.92596 0.62401,1.05816 2.11246,1.80402 0.80394,0.40285 1.48641,0.73246 1.51662,0.73246 0.0301,0 -0.071,-0.18563 -0.22504,-0.41252 -0.41532,-0.61201 -0.53433,-1.21261 -0.49087,-2.47733 0.039,-1.13612 0.0389,-1.13662 -0.33953,-1.64684 -0.55348,-0.74619 -1.00177,-1.68422 -1.28462,-2.68808 -0.33561,-1.19112 -0.36017,-3.30826 -0.0491,-4.23037 0.67003,-1.98597 2.02078,-3.59024 3.71217,-4.40893 1.77934,-0.86125 4.61464,-1.35618 6.90474,-1.20529 1.82356,0.12014 4.39652,0.82611 5.50073,1.50929 0.24953,0.15437 0.81593,0.65144 1.25868,1.10459 1.36779,1.39992 2.08078,3.18466 2.08516,5.2195 0.004,1.7734 -0.48116,3.23481 -1.4842,4.47246 l -0.50555,0.62379 0.0972,0.62379 c 0.15877,1.01835 0.0287,2.19157 -0.31022,2.79794 -0.16159,0.28911 -0.27212,0.54733 -0.24563,0.57382 0.0264,0.0265 0.67796,-0.27474 1.44773,-0.66939 l 1.39955,-0.71757 0.42036,-0.77369 c 0.44534,-0.81968 0.80862,-1.18843 1.37298,-1.39359 0.74749,-0.27176 1.23604,0.22114 1.44127,1.45408 0.12799,0.76897 0.18017,0.87152 0.74819,1.47035 0.63534,0.66982 0.76191,1.07327 0.49382,1.57419 -0.28588,0.53418 -0.91535,0.65133 -2.89712,0.53917 -0.23777,-0.0135 -1.26545,0.41253 -3.23239,1.33985 -2.78126,1.31122 -2.8838,1.37111 -2.8838,1.68425 0,0.31008 0.0918,0.36742 2.04151,1.27494 l 2.04152,0.95025 1.03329,-0.0743 c 1.26416,-0.0908 1.94725,0.13627 2.19277,0.72902 0.2027,0.48936 0.0152,0.90506 -0.69718,1.54553 -0.52462,0.47168 -0.56682,0.55096 -0.66598,1.25116 -0.18508,1.30691 -0.62571,1.78701 -1.40429,1.53006 -0.43943,-0.14503 -1.09321,-0.80852 -1.39857,-1.41935 -0.3158,-0.63172 -0.42641,-0.71188 -2.39898,-1.73857 l -1.75108,-0.91141 -0.64101,0.59347 c -0.78277,0.72471 -1.59367,1.05421 -3.03046,1.23139 -0.77072,0.095 -1.32749,0.0965 -2.09821,0.006 -1.44077,-0.17012 -2.21901,-0.48562 -3.01444,-1.22204 l -0.65318,-0.60474 -1.83716,0.98296 -1.83716,0.98295 -0.56439,0.86358 c -0.75134,1.14962 -1.38172,1.53261 -2.00645,1.21903 z m 0.78588,-0.77877 c 0.15894,-0.12501 0.49103,-0.54608 0.738,-0.93569 0.24697,-0.38962 0.54488,-0.79128 0.66202,-0.89258 0.11715,-0.1013 0.97856,-0.58176 1.91425,-1.0677 0.93569,-0.48593 1.71375,-0.89189 1.72901,-0.90213 0.0243,-0.0163 -0.43817,-1.40114 -0.50773,-1.52056 -0.0145,-0.0248 -0.7035,0.2906 -1.53115,0.70106 -2.06525,1.02424 -2.82164,1.26788 -3.44723,1.11035 -0.93517,-0.23547 -1.74363,-0.10141 -1.74363,0.28914 0,0.0968 0.30054,0.49051 0.66786,0.87499 0.63655,0.66625 0.67173,0.73361 0.75021,1.43624 0.0836,0.748 0.21475,1.13418 0.3853,1.13418 0.0518,0 0.22417,-0.10228 0.38309,-0.2273 z m 20.94504,0.0639 c 0.0746,-0.0899 0.18868,-0.53643 0.25357,-0.99239 0.11459,-0.80527 0.13783,-0.84935 0.81033,-1.5375 0.66014,-0.67552 0.68308,-0.71773 0.49318,-0.90734 -0.16669,-0.16644 -0.41573,-0.19942 -1.52746,-0.20226 l -1.32831,-0.003 -1.86638,-0.87559 c -1.0265,-0.48158 -1.9069,-0.8756 -1.95644,-0.8756 -0.0495,0 -0.0901,0.0978 -0.0901,0.21743 0,0.11959 -0.0991,0.44861 -0.22022,0.73116 l -0.2202,0.51373 0.70223,0.388 c 0.38623,0.2134 1.23161,0.65789 1.87864,0.98775 1.10647,0.5641 1.20178,0.64083 1.60324,1.29096 0.39909,0.64626 1.08752,1.42842 1.25726,1.42842 0.0413,0 0.13605,-0.0735 0.21063,-0.16338 z m -9.01062,-2.33191 c 1.49456,-0.38225 2.32584,-1.0474 2.9169,-2.33398 0.22155,-0.48227 0.2591,-0.76597 0.27653,-2.08918 0.017,-1.29107 0.0653,-1.67263 0.30829,-2.4336 0.15848,-0.49636 0.27372,-0.9169 0.25609,-0.93453 -0.0177,-0.0176 -0.11289,0.0312 -0.21171,0.10855 -0.26504,0.20742 -0.76107,1.68388 -0.99275,2.95496 -0.22898,1.2563 -0.39634,1.51359 -1.27567,1.96121 -1.16627,0.59366 -3.17491,0.78272 -4.75592,0.44762 -0.87821,-0.18613 -1.33067,-0.39733 -1.98325,-0.92576 -0.43436,-0.35174 -0.47706,-0.43596 -0.55313,-1.09147 -0.14198,-1.22331 -0.8639,-3.37608 -1.13216,-3.37608 -0.107,0 -0.0695,0.22187 0.13898,0.82228 0.24761,0.71304 0.28771,1.0332 0.30193,2.41011 0.0151,1.45545 0.041,1.63985 0.31113,2.21164 0.38723,0.81955 1.07925,1.58386 1.72699,1.90735 1.196,0.5973 3.15202,0.74853 4.66775,0.36088 z m -0.96449,-3.07537 c 0,-0.5398 -0.009,-0.55387 -0.34025,-0.55387 -0.33113,0 -0.34025,0.0147 -0.34025,0.54818 0,0.64201 0.0276,0.68435 0.39963,0.61324 0.25321,-0.0484 0.28087,-0.10824 0.28087,-0.60755 z m -1.8371,-0.0152 c -0.0293,-0.50841 -0.0674,-0.59545 -0.26112,-0.59545 -0.18706,0 -0.23309,0.0875 -0.26254,0.49914 -0.0354,0.49511 0.0781,0.6861 0.41025,0.69 0.10707,8.1e-4 0.13826,-0.16202 0.11341,-0.59369 z m 0.92976,0.0284 c 0,-0.55449 -0.007,-0.56709 -0.34025,-0.56709 -0.33268,0 -0.34025,0.0126 -0.34025,0.56709 0,0.55448 0.007,0.56708 0.34025,0.56708 0.33269,0 0.34025,-0.0126 0.34025,-0.56708 z m 1.67913,-0.0938 c 0.0329,-0.57402 0.0215,-0.6023 -0.22683,-0.56709 -0.2303,0.0326 -0.26553,0.10897 -0.296,0.6412 -0.0329,0.57402 -0.0215,0.6023 0.22684,0.56709 0.2303,-0.0327 0.26553,-0.10896 0.29599,-0.6412 z m 0.92947,-0.19418 c 0,-0.5582 -0.064,-0.63287 -0.42532,-0.49631 -0.21756,0.0822 -0.25518,0.17971 -0.25518,0.66128 l 0,0.56484 0.34025,-0.11861 c 0.30762,-0.10724 0.34025,-0.16585 0.34025,-0.6112 z m -4.30986,0.11416 c 0,-0.42888 -0.0422,-0.53 -0.25518,-0.61047 -0.35347,-0.13359 -0.42532,-0.0613 -0.42532,0.42802 0,0.46342 0.15941,0.69648 0.47636,0.69648 0.16655,0 0.20414,-0.0947 0.20414,-0.51403 z m -1.09191,-0.92828 c -0.32003,-0.234 -0.38251,-0.17546 -0.38251,0.35842 0,0.39379 0.0558,0.5432 0.25519,0.68352 0.25307,0.17807 0.25548,0.1751 0.29077,-0.35842 0.0272,-0.41038 -0.0116,-0.5725 -0.16345,-0.68352 z m 6.17355,0.38014 c 0.0364,-0.55275 -0.0217,-0.61434 -0.34646,-0.36778 -0.14015,0.10638 -0.19849,0.30939 -0.19849,0.69072 0,0.53444 0.002,0.53831 0.25519,0.3714 0.19227,-0.12708 0.26372,-0.29828 0.28976,-0.69434 z m -6.84884,-1.94338 c -0.0675,-0.0624 -0.15777,-0.29064 -0.20069,-0.50726 -0.0707,-0.35686 -0.67656,-1.13729 -0.88288,-1.13729 -0.0464,0 0.0382,0.35046 0.18783,0.77879 0.14966,0.42834 0.35885,1.23219 0.46487,1.78632 0.28373,1.48301 0.42785,1.55853 0.49682,0.26032 0.0367,-0.69066 0.0134,-1.1075 -0.0659,-1.18088 z m 7.48798,1.37608 c 0.0414,-0.33107 0.22173,-1.10757 0.4008,-1.72557 0.17908,-0.618 0.29906,-1.14945 0.26663,-1.18099 -0.12644,-0.12299 -0.71734,0.74007 -0.71734,1.04773 0,0.17959 -0.0746,0.34836 -0.17013,0.38503 -0.13555,0.052 -0.17013,0.29612 -0.17013,1.20121 0,0.95631 0.0249,1.11526 0.15749,1.00522 0.0866,-0.0719 0.19132,-0.40156 0.23268,-0.73263 z m -4.92686,-0.1852 c 0,-0.65026 -0.0126,-0.6805 -0.28354,-0.6805 -0.26764,0 -0.28354,0.0346 -0.28354,0.6159 0,0.54855 0.0279,0.62129 0.25519,0.66506 0.14036,0.027 0.26794,0.0561 0.28354,0.0646 0.0156,0.008 0.0284,-0.29078 0.0284,-0.66506 z m 0.90734,0 c 0,-0.6805 0,-0.6805 -0.34025,-0.6805 -0.33553,0 -0.34025,0.008 -0.34025,0.60489 0,0.68074 0.0414,0.75612 0.41586,0.75612 0.24784,0 0.26464,-0.0432 0.26464,-0.68051 z m 0.88465,-0.0284 0.034,-0.65215 -0.3459,0 c -0.34237,0 -0.34592,0.006 -0.34592,0.60489 0,0.67487 0.0566,0.78059 0.3923,0.73255 0.1976,-0.0283 0.23648,-0.12864 0.26551,-0.68529 z m 0.81661,-0.0284 c 0,-0.58977 -0.0155,-0.6238 -0.28354,-0.6238 -0.26808,0 -0.28354,0.034 -0.28354,0.6238 0,0.58977 0.0155,0.62379 0.28354,0.62379 0.26807,0 0.28354,-0.034 0.28354,-0.62379 z m -3.40252,-0.11342 c 0,-0.61749 -0.003,-0.6238 -0.34024,-0.6238 -0.32531,0 -0.34026,0.0214 -0.34026,0.4877 0,0.52248 0.14883,0.75989 0.47636,0.75989 0.17184,0 0.20414,-0.0987 0.20414,-0.62379 z m 4.17376,0.48769 c 0.0748,-0.0748 0.1361,-0.35556 0.1361,-0.62379 0,-0.46627 -0.0149,-0.4877 -0.34025,-0.4877 -0.33682,0 -0.34025,0.006 -0.34025,0.6238 0,0.52508 0.0323,0.62379 0.20415,0.62379 0.11228,0 0.26539,-0.0613 0.34025,-0.1361 z m -5.01271,-1.18733 c -0.006,-0.0106 -0.15239,-0.0543 -0.3238,-0.0974 -0.30153,-0.0757 -0.31167,-0.0633 -0.31167,0.38131 0,0.34774 0.0621,0.50322 0.25519,0.63909 0.25234,0.17754 0.25595,0.1735 0.3238,-0.36218 0.0377,-0.29795 0.0631,-0.55033 0.0565,-0.56086 z m 5.9209,0.31804 c 0.0348,-0.46688 -0.0242,-0.5313 -0.36585,-0.40019 -0.13059,0.0502 -0.17941,0.2236 -0.17941,0.63763 0,0.5642 0.002,0.56743 0.25519,0.40019 0.18297,-0.12089 0.26506,-0.30133 0.29007,-0.63763 z m -8.89448,-0.49739 c -0.0352,-0.20273 -0.1378,-0.63764 -0.22788,-0.96648 l -0.16377,-0.59787 -2.06599,-1.02453 c -1.13629,-0.56349 -2.23122,-1.13657 -2.43318,-1.27351 -0.20195,-0.13694 -0.51742,-0.53025 -0.70106,-0.87405 -0.34265,-0.64146 -0.70851,-1.04569 -1.05809,-1.16905 -0.2972,-0.10488 -0.52663,0.33622 -0.6128,1.17816 -0.0713,0.69627 -0.10218,0.75597 -0.68091,1.31502 -1.04603,1.01047 -0.75319,1.28941 1.26845,1.20823 l 1.13085,-0.0454 2.6653,1.29761 c 1.46592,0.71369 2.72782,1.30276 2.80424,1.30905 0.0953,0.008 0.11883,-0.10421 0.0748,-0.35717 z m 14.69745,-1.21255 c 2.32706,-1.09734 2.21174,-1.06756 3.94138,-1.0181 0.82418,0.0235 1.16553,-0.0976 1.16553,-0.41372 0,-0.0824 -0.27297,-0.44615 -0.60658,-0.80838 -0.54378,-0.59043 -0.61428,-0.72569 -0.681,-1.3065 -0.0917,-0.79842 -0.27584,-1.2235 -0.53,-1.2235 -0.33248,0 -0.78651,0.45131 -1.12408,1.11734 -0.17859,0.35234 -0.44465,0.75024 -0.59126,0.8842 -0.1466,0.13397 -1.23806,0.72843 -2.42546,1.32102 l -2.1589,1.07744 -0.1945,0.61704 c -0.10699,0.33938 -0.19451,0.77779 -0.19451,0.97425 l 0,0.35721 0.59544,-0.26844 c 0.3275,-0.14764 1.58927,-0.73707 2.80394,-1.30986 z m -6.34823,1.13462 c 0.34895,-0.10203 0.40045,-0.16515 0.42576,-0.52175 0.0701,-0.98679 0.77548,-1.67163 2.38319,-2.31366 0.51566,-0.20592 1.05948,-0.47031 1.2085,-0.58752 0.60103,-0.47278 0.79307,-1.91339 0.44708,-3.35383 -0.28524,-1.18755 -0.25888,-3.20168 0.053,-4.05111 0.26244,-0.71472 0.34064,-2.08221 0.13106,-2.29178 -0.0776,-0.0777 -0.0252,-0.19916 0.16129,-0.3744 l 0.27621,-0.25948 0.19191,0.37111 c 0.25534,0.49378 0.17409,2.03752 -0.16005,3.04075 -0.24723,0.7423 -0.32271,1.97734 -0.1386,2.26801 0.15665,0.24732 0.87811,-0.91961 1.2046,-1.94839 0.51244,-1.61468 0.33594,-3.60249 -0.46424,-5.22861 -0.39097,-0.79452 -1.68906,-2.22432 -2.39504,-2.63806 -1.18161,-0.69247 -4.16144,-1.39933 -5.89898,-1.39933 -1.69393,0 -4.19236,0.49509 -5.59174,1.10804 -2.15762,0.9451 -3.73733,3.44701 -3.74029,5.92383 -0.002,1.31518 0.65394,3.41274 1.34329,4.29832 l 0.21174,0.27202 0.0808,-0.64677 c 0.0913,-0.73105 0.0182,-1.31643 -0.27746,-2.22232 -0.28561,-0.87497 -0.38333,-1.91341 -0.2327,-2.47283 0.15676,-0.58217 0.30614,-0.67998 0.59593,-0.39018 0.19346,0.19345 0.20636,0.26495 0.0878,0.48646 -0.1834,0.34267 -0.074,1.36713 0.24442,2.2892 0.31601,0.915 0.31803,2.40427 0.006,4.05696 -0.17837,0.94323 -0.20316,1.32908 -0.11924,1.85547 0.1942,1.21805 0.40421,1.43927 1.85532,1.95443 1.44392,0.5126 2.32016,1.37568 2.32474,2.28983 0.002,0.41734 0.0681,0.4594 0.93853,0.5984 0.76397,0.122 4.32821,0.039 4.84762,-0.11281 z m -4.12716,-1.5419 c -0.38735,-0.38736 -0.37612,-1.6813 0.0224,-2.58225 0.22366,-0.50561 0.8762,-1.327 1.05423,-1.327 0.0559,0 0.10167,0.73411 0.10167,1.63135 l 0,1.63135 -0.45399,0.41016 c -0.52312,0.4726 -0.49673,0.46399 -0.72433,0.23639 z m 2.08598,-0.23639 -0.454,-0.41016 0,-1.63135 c 0,-0.91094 0.0459,-1.63135 0.10379,-1.63135 0.21415,0 1.0201,1.05316 1.192,1.55763 0.31978,0.93851 0.14534,2.52538 -0.27762,2.52538 -0.0606,0 -0.31447,-0.18457 -0.56417,-0.41015 z m -5.42397,-3.1831 c -0.49648,-0.24465 -0.8285,-0.71069 -1.20855,-1.69637 -0.27634,-0.71669 -0.2968,-0.85624 -0.17823,-1.21552 0.20298,-0.61505 0.66692,-0.93793 1.56053,-1.08603 1.38601,-0.22971 2.27414,-0.30627 2.51579,-0.21689 0.35027,0.12958 0.69169,0.76545 0.69217,1.28916 4e-4,0.57001 -0.61024,1.64838 -1.4215,2.50978 -0.52629,0.55883 -0.61115,0.60641 -1.07746,0.60403 -0.27839,-0.002 -0.67563,-0.0861 -0.88275,-0.18816 z m 8.01525,0.0184 c -0.62356,-0.33872 -1.90733,-2.34585 -1.90999,-2.9862 -0.002,-0.38396 0.32947,-1.02474 0.60588,-1.17267 0.29762,-0.15929 0.97036,-0.13581 2.31919,0.0809 1.14712,0.18433 1.53366,0.37019 1.78643,0.85898 0.24055,0.4652 0.20448,0.81544 -0.17884,1.73622 -0.33378,0.80177 -0.70235,1.26759 -1.20887,1.52781 -0.33998,0.17468 -1.051,0.15203 -1.4138,-0.0451 z"
       id="path4265-8-9"
       inkscape:connector-curvature="0"
       inkscape:export-xdpi="90"
       inkscape:export-ydpi="90" />
    <path
       style="fill:none;fill-rule:evenodd;stroke:#000000;stroke-width:1px;stroke-linecap:butt;stroke-linejoin:miter;stroke-opacity:1"
       d="m 278.49573,227.72059 c -20.68048,25.76229 30.98673,38.41965 51.22716,54.55349"
       id="path4308"
       inkscape:connector-curvature="0"
       sodipodi:nodetypes="cc"
       inkscape:export-xdpi="90"
       inkscape:export-ydpi="90" />
    <path
       style="fill:#000000"
       d="m 503.19798,260.5315 c -0.34551,-0.17342 -0.58577,-0.72699 -0.65044,-1.49857 -0.0527,-0.629 -0.0914,-0.70088 -0.74312,-1.37955 -0.73852,-0.76909 -0.82658,-1.04508 -0.52159,-1.63484 0.0913,-0.17648 0.25713,-0.36227 0.3686,-0.41286 0.11147,-0.0506 0.84074,-0.0951 1.6206,-0.0988 l 1.41793,-0.006 1.90722,-0.93401 c 2.62694,-1.28646 2.67708,-1.13742 -0.96813,-2.87808 -1.5418,-0.73625 -2.91982,-1.35248 -3.06227,-1.36943 -0.14246,-0.0169 -0.59794,0.01 -1.0122,0.0595 -1.28492,0.1541 -2.25236,-0.26386 -2.25236,-0.97306 0,-0.44091 0.16056,-0.72774 0.74682,-1.33411 0.44071,-0.45585 0.50538,-0.59278 0.60192,-1.2745 0.12024,-0.84902 0.42663,-1.38426 0.85377,-1.49147 0.562,-0.14105 1.45385,0.41648 1.81904,1.13716 0.46922,0.92596 0.62401,1.05816 2.11246,1.80402 0.80394,0.40285 1.48641,0.73246 1.51662,0.73246 0.0301,0 -0.071,-0.18563 -0.22504,-0.41252 -0.41532,-0.61201 -0.53433,-1.21261 -0.49087,-2.47733 0.039,-1.13612 0.0389,-1.13662 -0.33953,-1.64684 -0.55348,-0.74619 -1.00177,-1.68422 -1.28462,-2.68808 -0.33561,-1.19112 -0.36017,-3.30826 -0.0491,-4.23037 0.67003,-1.98597 2.02078,-3.59024 3.71217,-4.40893 1.77934,-0.86125 4.61464,-1.35618 6.90474,-1.20529 1.82356,0.12014 4.39652,0.82611 5.50073,1.50929 0.24953,0.15437 0.81593,0.65144 1.25868,1.10459 1.36779,1.39992 2.08078,3.18466 2.08516,5.2195 0.004,1.7734 -0.48116,3.23481 -1.4842,4.47246 l -0.50555,0.62379 0.0972,0.62379 c 0.15877,1.01835 0.0287,2.19157 -0.31022,2.79794 -0.16159,0.28911 -0.27212,0.54733 -0.24563,0.57382 0.0264,0.0265 0.67796,-0.27474 1.44773,-0.66939 l 1.39955,-0.71757 0.42036,-0.77369 c 0.44534,-0.81968 0.80862,-1.18843 1.37298,-1.39359 0.74749,-0.27176 1.23604,0.22114 1.44127,1.45408 0.12799,0.76897 0.18017,0.87152 0.74819,1.47035 0.63534,0.66982 0.76191,1.07327 0.49382,1.57419 -0.28588,0.53418 -0.91535,0.65133 -2.89712,0.53917 -0.23777,-0.0135 -1.26545,0.41253 -3.23239,1.33985 -2.78126,1.31122 -2.8838,1.37111 -2.8838,1.68425 0,0.31008 0.0918,0.36742 2.04151,1.27494 l 2.04152,0.95025 1.03329,-0.0743 c 1.26416,-0.0908 1.94725,0.13627 2.19277,0.72902 0.2027,0.48936 0.0152,0.90506 -0.69718,1.54553 -0.52462,0.47168 -0.56682,0.55096 -0.66598,1.25116 -0.18508,1.30691 -0.62571,1.78701 -1.40429,1.53006 -0.43943,-0.14503 -1.09321,-0.80852 -1.39857,-1.41935 -0.3158,-0.63172 -0.42641,-0.71188 -2.39898,-1.73857 l -1.75108,-0.91141 -0.64101,0.59347 c -0.78277,0.72471 -1.59367,1.05421 -3.03046,1.23139 -0.77072,0.095 -1.32749,0.0965 -2.09821,0.006 -1.44077,-0.17012 -2.21901,-0.48562 -3.01444,-1.22204 l -0.65318,-0.60474 -1.83716,0.98296 -1.83716,0.98295 -0.56439,0.86358 c -0.75134,1.14962 -1.38172,1.53261 -2.00645,1.21903 z m 0.78588,-0.77877 c 0.15894,-0.12501 0.49103,-0.54608 0.738,-0.93569 0.24697,-0.38962 0.54488,-0.79128 0.66202,-0.89258 0.11715,-0.1013 0.97856,-0.58176 1.91425,-1.0677 0.93569,-0.48593 1.71375,-0.89189 1.72901,-0.90213 0.0243,-0.0163 -0.43817,-1.40114 -0.50773,-1.52056 -0.0145,-0.0248 -0.7035,0.2906 -1.53115,0.70106 -2.06525,1.02424 -2.82164,1.26788 -3.44723,1.11035 -0.93517,-0.23547 -1.74363,-0.10141 -1.74363,0.28914 0,0.0968 0.30054,0.49051 0.66786,0.87499 0.63655,0.66625 0.67173,0.73361 0.75021,1.43624 0.0836,0.748 0.21475,1.13418 0.3853,1.13418 0.0518,0 0.22417,-0.10228 0.38309,-0.2273 z m 20.94504,0.0639 c 0.0746,-0.0899 0.18868,-0.53643 0.25357,-0.99239 0.11459,-0.80527 0.13783,-0.84935 0.81033,-1.5375 0.66014,-0.67552 0.68308,-0.71773 0.49318,-0.90734 -0.16669,-0.16644 -0.41573,-0.19942 -1.52746,-0.20226 l -1.32831,-0.003 -1.86638,-0.87559 c -1.0265,-0.48158 -1.9069,-0.8756 -1.95644,-0.8756 -0.0495,0 -0.0901,0.0978 -0.0901,0.21743 0,0.11959 -0.0991,0.44861 -0.22022,0.73116 l -0.2202,0.51373 0.70223,0.388 c 0.38623,0.2134 1.23161,0.65789 1.87864,0.98775 1.10647,0.5641 1.20178,0.64083 1.60324,1.29096 0.39909,0.64626 1.08752,1.42842 1.25726,1.42842 0.0413,0 0.13605,-0.0735 0.21063,-0.16338 z m -9.01062,-2.33191 c 1.49456,-0.38225 2.32584,-1.0474 2.9169,-2.33398 0.22155,-0.48227 0.2591,-0.76597 0.27653,-2.08918 0.017,-1.29107 0.0653,-1.67263 0.30829,-2.4336 0.15848,-0.49636 0.27372,-0.9169 0.25609,-0.93453 -0.0177,-0.0176 -0.11289,0.0312 -0.21171,0.10855 -0.26504,0.20742 -0.76107,1.68388 -0.99275,2.95496 -0.22898,1.2563 -0.39634,1.51359 -1.27567,1.96121 -1.16627,0.59366 -3.17491,0.78272 -4.75592,0.44762 -0.87821,-0.18613 -1.33067,-0.39733 -1.98325,-0.92576 -0.43436,-0.35174 -0.47706,-0.43596 -0.55313,-1.09147 -0.14198,-1.22331 -0.8639,-3.37608 -1.13216,-3.37608 -0.107,0 -0.0695,0.22187 0.13898,0.82228 0.24761,0.71304 0.28771,1.0332 0.30193,2.41011 0.0151,1.45545 0.041,1.63985 0.31113,2.21164 0.38723,0.81955 1.07925,1.58386 1.72699,1.90735 1.196,0.5973 3.15202,0.74853 4.66775,0.36088 z m -0.96449,-3.07537 c 0,-0.5398 -0.009,-0.55387 -0.34025,-0.55387 -0.33113,0 -0.34025,0.0147 -0.34025,0.54818 0,0.64201 0.0276,0.68435 0.39963,0.61324 0.25321,-0.0484 0.28087,-0.10824 0.28087,-0.60755 z m -1.8371,-0.0152 c -0.0293,-0.50841 -0.0674,-0.59545 -0.26112,-0.59545 -0.18706,0 -0.23309,0.0875 -0.26254,0.49914 -0.0354,0.49511 0.0781,0.6861 0.41025,0.69 0.10707,8.1e-4 0.13826,-0.16202 0.11341,-0.59369 z m 0.92976,0.0284 c 0,-0.55449 -0.007,-0.56709 -0.34025,-0.56709 -0.33268,0 -0.34025,0.0126 -0.34025,0.56709 0,0.55448 0.007,0.56708 0.34025,0.56708 0.33269,0 0.34025,-0.0126 0.34025,-0.56708 z m 1.67913,-0.0938 c 0.0329,-0.57402 0.0215,-0.6023 -0.22683,-0.56709 -0.2303,0.0326 -0.26553,0.10897 -0.296,0.6412 -0.0329,0.57402 -0.0215,0.6023 0.22684,0.56709 0.2303,-0.0327 0.26553,-0.10896 0.29599,-0.6412 z m 0.92947,-0.19418 c 0,-0.5582 -0.064,-0.63287 -0.42532,-0.49631 -0.21756,0.0822 -0.25518,0.17971 -0.25518,0.66128 l 0,0.56484 0.34025,-0.11861 c 0.30762,-0.10724 0.34025,-0.16585 0.34025,-0.6112 z m -4.30986,0.11416 c 0,-0.42888 -0.0422,-0.53 -0.25518,-0.61047 -0.35347,-0.13359 -0.42532,-0.0613 -0.42532,0.42802 0,0.46342 0.15941,0.69648 0.47636,0.69648 0.16655,0 0.20414,-0.0947 0.20414,-0.51403 z m -1.09191,-0.92828 c -0.32003,-0.234 -0.38251,-0.17546 -0.38251,0.35842 0,0.39379 0.0558,0.5432 0.25519,0.68352 0.25307,0.17807 0.25548,0.1751 0.29077,-0.35842 0.0272,-0.41038 -0.0116,-0.5725 -0.16345,-0.68352 z m 6.17355,0.38014 c 0.0364,-0.55275 -0.0217,-0.61434 -0.34646,-0.36778 -0.14015,0.10638 -0.19849,0.30939 -0.19849,0.69072 0,0.53444 0.002,0.53831 0.25519,0.3714 0.19227,-0.12708 0.26372,-0.29828 0.28976,-0.69434 z m -6.84884,-1.94338 c -0.0675,-0.0624 -0.15777,-0.29064 -0.20069,-0.50726 -0.0707,-0.35686 -0.67656,-1.13729 -0.88288,-1.13729 -0.0464,0 0.0382,0.35046 0.18783,0.77879 0.14966,0.42834 0.35885,1.23219 0.46487,1.78632 0.28373,1.48301 0.42785,1.55853 0.49682,0.26032 0.0367,-0.69066 0.0134,-1.1075 -0.0659,-1.18088 z m 7.48798,1.37608 c 0.0414,-0.33107 0.22173,-1.10757 0.4008,-1.72557 0.17908,-0.618 0.29906,-1.14945 0.26663,-1.18099 -0.12644,-0.12299 -0.71734,0.74007 -0.71734,1.04773 0,0.17959 -0.0746,0.34836 -0.17013,0.38503 -0.13555,0.052 -0.17013,0.29612 -0.17013,1.20121 0,0.95631 0.0249,1.11526 0.15749,1.00522 0.0866,-0.0719 0.19132,-0.40156 0.23268,-0.73263 z m -4.92686,-0.1852 c 0,-0.65026 -0.0126,-0.6805 -0.28354,-0.6805 -0.26764,0 -0.28354,0.0346 -0.28354,0.6159 0,0.54855 0.0279,0.62129 0.25519,0.66506 0.14036,0.027 0.26794,0.0561 0.28354,0.0646 0.0156,0.008 0.0284,-0.29078 0.0284,-0.66506 z m 0.90734,0 c 0,-0.6805 0,-0.6805 -0.34025,-0.6805 -0.33553,0 -0.34025,0.008 -0.34025,0.60489 0,0.68074 0.0414,0.75612 0.41586,0.75612 0.24784,0 0.26464,-0.0432 0.26464,-0.68051 z m 0.88465,-0.0284 0.034,-0.65215 -0.3459,0 c -0.34237,0 -0.34592,0.006 -0.34592,0.60489 0,0.67487 0.0566,0.78059 0.3923,0.73255 0.1976,-0.0283 0.23648,-0.12864 0.26551,-0.68529 z m 0.81661,-0.0284 c 0,-0.58977 -0.0155,-0.6238 -0.28354,-0.6238 -0.26808,0 -0.28354,0.034 -0.28354,0.6238 0,0.58977 0.0155,0.62379 0.28354,0.62379 0.26807,0 0.28354,-0.034 0.28354,-0.62379 z m -3.40252,-0.11342 c 0,-0.61749 -0.003,-0.6238 -0.34024,-0.6238 -0.32531,0 -0.34026,0.0214 -0.34026,0.4877 0,0.52248 0.14883,0.75989 0.47636,0.75989 0.17184,0 0.20414,-0.0987 0.20414,-0.62379 z m 4.17376,0.48769 c 0.0748,-0.0748 0.1361,-0.35556 0.1361,-0.62379 0,-0.46627 -0.0149,-0.4877 -0.34025,-0.4877 -0.33682,0 -0.34025,0.006 -0.34025,0.6238 0,0.52508 0.0323,0.62379 0.20415,0.62379 0.11228,0 0.26539,-0.0613 0.34025,-0.1361 z m -5.01271,-1.18733 c -0.006,-0.0106 -0.15239,-0.0543 -0.3238,-0.0974 -0.30153,-0.0757 -0.31167,-0.0633 -0.31167,0.38131 0,0.34774 0.0621,0.50322 0.25519,0.63909 0.25234,0.17754 0.25595,0.1735 0.3238,-0.36218 0.0377,-0.29795 0.0631,-0.55033 0.0565,-0.56086 z m 5.9209,0.31804 c 0.0348,-0.46688 -0.0242,-0.5313 -0.36585,-0.40019 -0.13059,0.0502 -0.17941,0.2236 -0.17941,0.63763 0,0.5642 0.002,0.56743 0.25519,0.40019 0.18297,-0.12089 0.26506,-0.30133 0.29007,-0.63763 z m -8.89448,-0.49739 c -0.0352,-0.20273 -0.1378,-0.63764 -0.22788,-0.96648 l -0.16377,-0.59787 -2.06599,-1.02453 c -1.13629,-0.56349 -2.23122,-1.13657 -2.43318,-1.27351 -0.20195,-0.13694 -0.51742,-0.53025 -0.70106,-0.87405 -0.34265,-0.64146 -0.70851,-1.04569 -1.05809,-1.16905 -0.2972,-0.10488 -0.52663,0.33622 -0.6128,1.17816 -0.0713,0.69627 -0.10218,0.75597 -0.68091,1.31502 -1.04603,1.01047 -0.75319,1.28941 1.26845,1.20823 l 1.13085,-0.0454 2.6653,1.29761 c 1.46592,0.71369 2.72782,1.30276 2.80424,1.30905 0.0953,0.008 0.11883,-0.10421 0.0748,-0.35717 z m 14.69745,-1.21255 c 2.32706,-1.09734 2.21174,-1.06756 3.94138,-1.0181 0.82418,0.0235 1.16553,-0.0976 1.16553,-0.41372 0,-0.0824 -0.27297,-0.44615 -0.60658,-0.80838 -0.54378,-0.59043 -0.61428,-0.72569 -0.681,-1.3065 -0.0917,-0.79842 -0.27584,-1.2235 -0.53,-1.2235 -0.33248,0 -0.78651,0.45131 -1.12408,1.11734 -0.17859,0.35234 -0.44465,0.75024 -0.59126,0.8842 -0.1466,0.13397 -1.23806,0.72843 -2.42546,1.32102 l -2.1589,1.07744 -0.1945,0.61704 c -0.10699,0.33938 -0.19451,0.77779 -0.19451,0.97425 l 0,0.35721 0.59544,-0.26844 c 0.3275,-0.14764 1.58927,-0.73707 2.80394,-1.30986 z m -6.34823,1.13462 c 0.34895,-0.10203 0.40045,-0.16515 0.42576,-0.52175 0.0701,-0.98679 0.77548,-1.67163 2.38319,-2.31366 0.51566,-0.20592 1.05948,-0.47031 1.2085,-0.58752 0.60103,-0.47278 0.79307,-1.91339 0.44708,-3.35383 -0.28524,-1.18755 -0.25888,-3.20168 0.053,-4.05111 0.26244,-0.71472 0.34064,-2.08221 0.13106,-2.29178 -0.0776,-0.0777 -0.0252,-0.19916 0.16129,-0.3744 l 0.27621,-0.25948 0.19191,0.37111 c 0.25534,0.49378 0.17409,2.03752 -0.16005,3.04075 -0.24723,0.7423 -0.32271,1.97734 -0.1386,2.26801 0.15665,0.24732 0.87811,-0.91961 1.2046,-1.94839 0.51244,-1.61468 0.33594,-3.60249 -0.46424,-5.22861 -0.39097,-0.79452 -1.68906,-2.22432 -2.39504,-2.63806 -1.18161,-0.69247 -4.16144,-1.39933 -5.89898,-1.39933 -1.69393,0 -4.19236,0.49509 -5.59174,1.10804 -2.15762,0.9451 -3.73733,3.44701 -3.74029,5.92383 -0.002,1.31518 0.65394,3.41274 1.34329,4.29832 l 0.21174,0.27202 0.0808,-0.64677 c 0.0913,-0.73105 0.0182,-1.31643 -0.27746,-2.22232 -0.28561,-0.87497 -0.38333,-1.91341 -0.2327,-2.47283 0.15676,-0.58217 0.30614,-0.67998 0.59593,-0.39018 0.19346,0.19345 0.20636,0.26495 0.0878,0.48646 -0.1834,0.34267 -0.074,1.36713 0.24442,2.2892 0.31601,0.915 0.31803,2.40427 0.006,4.05696 -0.17837,0.94323 -0.20316,1.32908 -0.11924,1.85547 0.1942,1.21805 0.40421,1.43927 1.85532,1.95443 1.44392,0.5126 2.32016,1.37568 2.32474,2.28983 0.002,0.41734 0.0681,0.4594 0.93853,0.5984 0.76397,0.122 4.32821,0.039 4.84762,-0.11281 z m -4.12716,-1.5419 c -0.38735,-0.38736 -0.37612,-1.6813 0.0224,-2.58225 0.22366,-0.50561 0.8762,-1.327 1.05423,-1.327 0.0559,0 0.10167,0.73411 0.10167,1.63135 l 0,1.63135 -0.45399,0.41016 c -0.52312,0.4726 -0.49673,0.46399 -0.72433,0.23639 z m 2.08598,-0.23639 -0.454,-0.41016 0,-1.63135 c 0,-0.91094 0.0459,-1.63135 0.10379,-1.63135 0.21415,0 1.0201,1.05316 1.192,1.55763 0.31978,0.93851 0.14534,2.52538 -0.27762,2.52538 -0.0606,0 -0.31447,-0.18457 -0.56417,-0.41015 z m -5.42397,-3.1831 c -0.49648,-0.24465 -0.8285,-0.71069 -1.20855,-1.69637 -0.27634,-0.71669 -0.2968,-0.85624 -0.17823,-1.21552 0.20298,-0.61505 0.66692,-0.93793 1.56053,-1.08603 1.38601,-0.22971 2.27414,-0.30627 2.51579,-0.21689 0.35027,0.12958 0.69169,0.76545 0.69217,1.28916 4e-4,0.57001 -0.61024,1.64838 -1.4215,2.50978 -0.52629,0.55883 -0.61115,0.60641 -1.07746,0.60403 -0.27839,-0.002 -0.67563,-0.0861 -0.88275,-0.18816 z m 8.01525,0.0184 c -0.62356,-0.33872 -1.90733,-2.34585 -1.90999,-2.9862 -0.002,-0.38396 0.32947,-1.02474 0.60588,-1.17267 0.29762,-0.15929 0.97036,-0.13581 2.31919,0.0809 1.14712,0.18433 1.53366,0.37019 1.78643,0.85898 0.24055,0.4652 0.20448,0.81544 -0.17884,1.73622 -0.33378,0.80177 -0.70235,1.26759 -1.20887,1.52781 -0.33998,0.17468 -1.051,0.15203 -1.4138,-0.0451 z"
       id="path4265-8-0"
       inkscape:connector-curvature="0"
       inkscape:export-xdpi="90"
       inkscape:export-ydpi="90" />
    <path
       style="fill:#000000"
       d="m 198.73016,697.68698 c 0.0827,-0.18328 1.92752,-4.80398 4.09959,-10.26821 l 3.94925,-9.93495 0.87305,-0.51306 c 1.57568,-0.92596 3.43176,-1.35492 4.78235,-1.10525 2.03369,0.37595 3.76702,1.85519 6.80233,5.80518 2.21699,2.88507 3.42571,4.07659 4.84814,4.77915 1.08557,0.53616 1.12079,0.54309 2.73854,0.5382 1.80769,-0.006 2.49571,-0.19521 3.96313,-1.09304 l 0.75709,-0.46322 4.17129,-10.50267 c 2.29421,-5.77647 4.17157,-10.58859 4.1719,-10.69362 4.8e-4,-0.13102 -0.23329,-0.0597 -0.74451,0.22706 -1.77892,0.99798 -3.60897,1.42975 -4.9154,1.1597 -2.02798,-0.4192 -3.62257,-1.76977 -6.56886,-5.56357 -1.97794,-2.54692 -3.1996,-3.87333 -4.1899,-4.54915 -2.04895,-1.3983 -4.54281,-1.47687 -7.03027,-0.22148 -0.93577,0.47227 -0.96206,0.47796 -0.96206,0.20821 0,-0.16726 -0.59458,-0.41562 -1.03586,-0.43268 -0.0989,-0.004 -16.98899,42.26632 -16.98899,42.51775 0,0.053 0.15374,0.13503 0.34164,0.18219 0.1879,0.0472 0.44188,0.12422 0.56441,0.17124 0.14677,0.0563 0.27408,-0.0282 0.37314,-0.24778 z m 26.11796,-11.17576 c -0.3892,-0.14788 -1.12296,-0.56525 -1.63057,-0.92747 l -0.92293,-0.6586 0.23757,-0.59825 c 0.13067,-0.32904 0.49945,-1.25163 0.81952,-2.0502 l 0.58194,-1.45195 0.84501,0.63603 c 0.83713,0.6301 2.08742,1.20341 2.62444,1.20341 0.15319,0 0.27852,0.0739 0.27852,0.16429 0,0.0904 -0.33023,1.01645 -0.73385,2.05796 -0.82752,2.13535 -0.80394,2.11711 -2.09965,1.62478 z m 2.97544,-3.7774 c 0,-0.0398 0.35126,-0.94761 0.78059,-2.01743 0.42933,-1.06982 0.78061,-1.99076 0.78061,-2.04655 0,-0.0558 -0.36724,-0.20741 -0.81609,-0.33694 -0.86431,-0.24944 -1.48247,-0.57607 -2.32675,-1.22945 -0.28445,-0.22013 -0.54896,-0.40024 -0.58781,-0.40024 -0.0389,0 -0.40651,0.84625 -0.81701,1.88055 -0.4105,1.03429 -0.80633,1.94441 -0.87963,2.02247 -0.15006,0.15981 -0.90304,-0.63019 -2.26585,-2.37729 -0.4719,-0.60497 -0.87153,-1.09994 -0.88807,-1.09994 -0.0165,0 -0.37026,0.86221 -0.78603,1.91602 -0.41579,1.05382 -0.80568,1.91603 -0.86644,1.91603 -0.0608,0 -0.41491,-0.39917 -0.787,-0.88705 -0.3721,-0.48787 -1.04911,-1.27847 -1.50449,-1.75687 l -0.82795,-0.86981 0.69361,-1.75585 c 0.38148,-0.96572 0.73769,-1.87871 0.79155,-2.02887 0.0878,-0.24473 0.16501,-0.20797 0.74546,0.35482 0.35613,0.34531 1.06173,1.15474 1.56799,1.79874 0.50626,0.644 0.94221,1.17091 0.96879,1.17091 0.0266,0 0.41176,-0.92944 0.85597,-2.06542 0.44422,-1.13599 0.82436,-2.0461 0.84476,-2.02248 0.0204,0.0236 0.54729,0.68163 1.17085,1.46223 0.62356,0.7806 1.32274,1.59601 1.55372,1.81203 l 0.41997,0.39274 0.75163,-1.95395 c 0.41339,-1.07468 0.80325,-2.00996 0.86634,-2.07841 0.0633,-0.0687 0.39214,0.10287 0.73411,0.38309 0.68782,0.56362 1.92283,1.18204 2.63024,1.31708 0.2537,0.0484 0.46126,0.13111 0.46126,0.18374 0,0.0526 -0.35126,0.97102 -0.78059,2.04083 -0.42934,1.06982 -0.78061,1.97766 -0.78061,2.01743 0,0.15216 1.39568,0.0629 2.16998,-0.13877 0.44569,-0.11609 1.25745,-0.43623 1.80392,-0.71143 0.54647,-0.27519 0.99358,-0.48059 0.99358,-0.45644 0,0.0241 -0.36823,0.967 -0.81828,2.09523 l -0.81828,2.0513 -1.06227,0.53078 c -0.58424,0.29192 -1.41354,0.62302 -1.84287,0.73577 -0.75927,0.19941 -2.12891,0.29681 -2.12891,0.1514 z m -19.86325,-7.82262 c 0.40067,-1.00493 0.79857,-1.91196 0.88423,-2.01563 0.23893,-0.28918 1.34462,-0.81088 2.42388,-1.14367 1.09904,-0.3389 2.57983,-0.4126 2.46341,-0.12261 -0.0392,0.0976 -0.40828,1.02366 -0.82026,2.05795 l -0.74903,1.88055 -0.88312,0 c -0.95317,0 -2.29479,0.3683 -3.32578,0.913 -0.35127,0.18558 -0.65738,0.31946 -0.68024,0.29749 -0.0229,-0.022 0.28625,-0.86214 0.68691,-1.86708 z m 23.33421,-0.65686 c -0.0375,-0.0979 0.27765,-1.03996 0.7005,-2.09344 0.42284,-1.05347 0.73922,-1.96331 0.70307,-2.02185 -0.0362,-0.0586 -0.15538,-0.10646 -0.26493,-0.10646 -0.46593,0 -1.82666,-0.63163 -2.62187,-1.21703 -0.84733,-0.62377 -0.85951,-0.62762 -0.9816,-0.31047 -0.52386,1.36073 -1.48905,3.74062 -1.54047,3.79835 -0.0809,0.0908 -1.09147,-1.03826 -2.18998,-2.4465 -0.47115,-0.60401 -0.90283,-1.06965 -0.95928,-1.03477 -0.0564,0.0349 -0.44027,0.9309 -0.85296,1.99115 -0.41268,1.06024 -0.79665,1.90909 -0.85326,1.88633 -0.0566,-0.0227 -0.61648,-0.68006 -1.24415,-1.46066 -0.62767,-0.78061 -1.30587,-1.57228 -1.50712,-1.75928 l -0.36591,-0.34 -0.13212,0.34 c -0.0726,0.187 -0.42863,1.10381 -0.79102,2.03737 -0.36239,0.93357 -0.68182,1.72031 -0.70984,1.74833 -0.028,0.028 -0.36059,-0.18662 -0.73905,-0.47698 -0.72524,-0.55642 -2.01844,-1.19313 -2.43077,-1.1968 -0.68348,-0.006 -0.67051,-0.17662 0.17418,-2.28969 0.44783,-1.12032 0.82726,-2.05055 0.84314,-2.06719 0.0159,-0.0166 0.34527,0.0534 0.73194,0.15577 0.87083,0.23041 1.67023,0.63465 2.39021,1.20868 0.30347,0.24195 0.59086,0.43939 0.63868,0.43876 0.0478,-6.5e-4 0.43196,-0.8788 0.85365,-1.95151 0.42171,-1.0727 0.79029,-1.97832 0.81907,-2.01248 0.095,-0.11274 1.33495,1.17864 2.206,2.29748 0.47099,0.60497 0.9018,1.09994 0.95737,1.09994 0.0556,0 0.44261,-0.86575 0.86009,-1.92388 0.41749,-1.05813 0.79715,-1.94742 0.8437,-1.97618 0.0465,-0.0288 0.54147,0.5336 1.09982,1.24972 1.01332,1.2996 1.9785,2.33078 2.07312,2.21486 0.0275,-0.0337 0.39012,-0.92348 0.80581,-1.9773 0.4157,-1.05381 0.77247,-1.93775 0.79283,-1.9643 0.0203,-0.0265 0.37721,0.20504 0.793,0.51466 0.97436,0.72555 1.29326,0.88846 2.26768,1.15839 l 0.80206,0.22219 -0.76657,1.90995 c -0.42162,1.05048 -0.76658,1.99955 -0.76658,2.10903 0,0.16085 0.18005,0.17978 0.93794,0.0986 1.05013,-0.11246 2.04327,-0.42209 3.14567,-0.98072 0.40807,-0.20678 0.74194,-0.32164 0.74194,-0.25525 0,0.4033 -1.48065,3.83469 -1.76361,4.08714 -0.93226,0.83177 -4.50093,1.81574 -4.70038,1.29602 z m -19.97298,-7.78465 0.81897,-2.04324 0.87956,-0.46516 c 1.44918,-0.76641 4.01696,-1.305 4.01696,-0.84255 0,0.10039 -0.34493,1.04244 -0.7665,2.09343 l -0.76651,1.9109 -0.92809,0.0939 c -1.15311,0.11666 -2.20198,0.42985 -3.21602,0.96031 -0.42933,0.2246 -0.79787,0.39199 -0.81897,0.372 -0.0211,-0.02 0.33016,-0.95582 0.7806,-2.07959 z m 7.85851,-2.81267 c -0.28097,-0.14114 -0.76632,-0.33398 -1.07857,-0.42854 -0.31223,-0.0946 -0.64348,-0.19543 -0.73608,-0.22418 -0.11166,-0.0347 0.0956,-0.71228 0.61515,-2.01169 0.43094,-1.07769 0.83997,-2.01806 0.90895,-2.08972 0.29104,-0.3023 2.04452,0.44811 3.37072,1.44252 l 0.42508,0.31873 0.77835,-1.94534 c 0.4281,-1.06995 0.84627,-1.96799 0.92928,-1.99565 0.14141,-0.0471 2.4063,2.57607 2.85441,3.30601 0.18839,0.30684 0.1446,0.48452 -0.55849,2.26653 -0.41958,1.06346 -0.79963,1.95628 -0.84455,1.98405 -0.0449,0.0278 -0.55758,-0.55118 -1.13925,-1.28653 -1.07165,-1.35478 -1.94514,-2.28794 -2.03706,-2.17623 -0.0417,0.0507 -1.0786,2.62216 -1.52752,3.78823 -0.12335,0.32039 -0.12408,0.32022 -0.78652,-0.18544 -0.36468,-0.27837 -0.89294,-0.6216 -1.1739,-0.76275 z m -5.26544,-3.62802 c 0,-0.0377 0.32234,-0.884 0.71632,-1.88054 0.81202,-2.05396 0.97112,-2.23677 2.50403,-2.87704 0.9619,-0.40178 3.07451,-0.84818 3.2384,-0.68428 0.0413,0.0413 -0.29104,1.01066 -0.73854,2.15412 l -0.81364,2.07903 -0.8566,0.002 c -0.89471,0.002 -2.83509,0.57911 -3.49051,1.03817 -0.33459,0.23437 -0.55946,0.30215 -0.55946,0.16865 z"
       id="path4355"
       inkscape:connector-curvature="0"
       inkscape:export-xdpi="90"
       inkscape:export-ydpi="90" />
    <path
       style="fill:none;fill-rule:evenodd;stroke:#000000;stroke-width:1px;stroke-linecap:butt;stroke-linejoin:miter;stroke-opacity:1"
       d="m 244.60771,585.89941 c -4.07385,30.08474 111.69335,45.55899 105.29572,85.62837"
       id="path4357"
       inkscape:connector-curvature="0"
       sodipodi:nodetypes="cc"
       inkscape:export-xdpi="90"
       inkscape:export-ydpi="90" />
    <path
       style="fill:none;fill-rule:evenodd;stroke:#000000;stroke-width:1px;stroke-linecap:butt;stroke-linejoin:miter;stroke-opacity:1"
       d="m 361.66285,624.5198 -6.35677,47.54895"
       id="path4359"
       inkscape:connector-curvature="0"
       sodipodi:nodetypes="cc"
       inkscape:export-xdpi="90"
       inkscape:export-ydpi="90" />
    <path
       style="fill:none;fill-rule:evenodd;stroke:#000000;stroke-width:1px;stroke-linecap:butt;stroke-linejoin:miter;stroke-opacity:1"
       d="m 463.19805,583.58324 c 1.21271,34.55294 -96.7737,67.94141 -102.43331,89.01597"
       id="path4361"
       inkscape:connector-curvature="0"
       sodipodi:nodetypes="cc"
       inkscape:export-xdpi="90"
       inkscape:export-ydpi="90" />
    <text
       xml:space="preserve"
       style="font-style:normal;font-variant:normal;font-weight:bold;font-stretch:normal;font-size:15px;line-height:125%;font-family:sans-serif;-inkscape-font-specification:'sans-serif Bold';letter-spacing:0px;word-spacing:0px;fill:#000000;fill-opacity:1;stroke:none;stroke-width:1px;stroke-linecap:butt;stroke-linejoin:miter;stroke-opacity:1"
       x="239.68924"
       y="688.58466"
       id="text4196-1"
       sodipodi:linespacing="125%"
       inkscape:export-xdpi="90"
       inkscape:export-ydpi="90"><tspan
         sodipodi:role="line"
         id="tspan4198-6"
         x="239.68924"
         y="688.58466">Alternative to Contextuality</tspan></text>
    <path
       style="color:#000000;clip-rule:nonzero;display:inline;overflow:visible;visibility:visible;opacity:1;isolation:auto;mix-blend-mode:normal;color-interpolation:sRGB;color-interpolation-filters:linearRGB;solid-color:#000000;solid-opacity:1;fill:none;fill-opacity:1;fill-rule:evenodd;stroke:#000000;stroke-width:1px;stroke-linecap:butt;stroke-linejoin:miter;stroke-miterlimit:4;stroke-dasharray:none;stroke-dashoffset:0;stroke-opacity:1;color-rendering:auto;image-rendering:auto;shape-rendering:auto;text-rendering:auto;enable-background:accumulate"
       d="m 574.7768,21.402558 58.58885,0"
       id="path4563"
       inkscape:connector-curvature="0"
       inkscape:export-xdpi="90"
       inkscape:export-ydpi="90" />
    <path
       style="color:#000000;clip-rule:nonzero;display:inline;overflow:visible;visibility:visible;opacity:1;isolation:auto;mix-blend-mode:normal;color-interpolation:sRGB;color-interpolation-filters:linearRGB;solid-color:#000000;solid-opacity:1;fill:none;fill-opacity:1;fill-rule:evenodd;stroke:#000000;stroke-width:1px;stroke-linecap:butt;stroke-linejoin:miter;stroke-miterlimit:4;stroke-dasharray:none;stroke-dashoffset:0;stroke-opacity:1;marker-start:url(#Arrow2Lstart);marker-end:url(#Arrow2Lend);color-rendering:auto;image-rendering:auto;shape-rendering:auto;text-rendering:auto;enable-background:accumulate"
       d="m 604.27427,23.126996 0,200.910124"
       id="path4565"
       inkscape:connector-curvature="0"
       sodipodi:nodetypes="cc"
       inkscape:export-xdpi="90"
       inkscape:export-ydpi="90" />
    <path
       style="fill:none;fill-rule:evenodd;stroke:#000000;stroke-width:1px;stroke-linecap:butt;stroke-linejoin:miter;stroke-opacity:1"
       d="m 574.7768,226.45333 58.58885,0"
       id="path4563-0"
       inkscape:connector-curvature="0"
       inkscape:export-xdpi="90"
       inkscape:export-ydpi="90" />
    <path
       style="fill:none;fill-rule:evenodd;stroke:#000000;stroke-width:1px;stroke-linecap:butt;stroke-linejoin:miter;stroke-opacity:1;marker-start:url(#Arrow2Lstart-0);marker-end:url(#Arrow2Lend-0)"
       d="m 626.27427,228.41271 0,43.60665 m 0,69.19545 0,56.82108 m 0,23.48605 0,133.59267 m 0,32.82996 0,103.118"
       id="path4565-7"
       inkscape:connector-curvature="0"
       sodipodi:nodetypes="cccccccc"
       inkscape:export-xdpi="90"
       inkscape:export-ydpi="90" />
    <text
       xml:space="preserve"
       style="font-style:normal;font-weight:normal;font-size:17.5px;line-height:125%;font-family:sans-serif;letter-spacing:0px;word-spacing:0px;fill:#000000;fill-opacity:1;stroke:none;stroke-width:1px;stroke-linecap:butt;stroke-linejoin:miter;stroke-opacity:1"
       x="431.47595"
       y="-628.32208"
       id="text4905-2"
       sodipodi:linespacing="125%"
       transform="matrix(0,1,-1,0,0,0)"
       inkscape:export-xdpi="90"
       inkscape:export-ydpi="90"><tspan
         sodipodi:role="line"
         id="tspan4907-3"
         x="431.47595"
         y="-628.32208"
         style="font-size:12.5px">semester 10</tspan></text>
    <path
       style="fill:none;fill-rule:evenodd;stroke:#000000;stroke-width:1px;stroke-linecap:butt;stroke-linejoin:miter;stroke-opacity:1"
       d="m 574.7768,692.45333 58.58885,0"
       id="path4563-0-4"
       inkscape:connector-curvature="0"
       inkscape:export-xdpi="90"
       inkscape:export-ydpi="90" />
    <text
       xml:space="preserve"
       style="font-style:normal;font-weight:normal;font-size:17.5px;line-height:125%;font-family:sans-serif;letter-spacing:0px;word-spacing:0px;fill:#000000;fill-opacity:1;stroke:none;stroke-width:1px;stroke-linecap:butt;stroke-linejoin:miter;stroke-opacity:1"
       x="90.328293"
       y="-606.59216"
       id="text4905-2-1"
       sodipodi:linespacing="125%"
       transform="matrix(0,1,-1,0,0,0)"
       inkscape:export-xdpi="90"
       inkscape:export-ydpi="90"><tspan
         sodipodi:role="line"
         id="tspan4907-3-0"
         x="90.328293"
         y="-606.59216"
         style="font-size:12.5px">semester 9</tspan></text>
    <text
       xml:space="preserve"
       style="font-style:normal;font-weight:normal;font-size:15px;line-height:125%;font-family:sans-serif;letter-spacing:0px;word-spacing:0px;fill:#000000;fill-opacity:1;stroke:none;stroke-width:1px;stroke-linecap:butt;stroke-linejoin:miter;stroke-opacity:1"
       x="217.51692"
       y="36.690022"
       id="text4136-3"
       sodipodi:linespacing="125%"
       inkscape:export-xdpi="90"
       inkscape:export-ydpi="90"><tspan
         sodipodi:role="line"
         id="tspan4138-2"
         x="217.51692"
         y="36.690022">Bohmian Mechanics (BM)</tspan></text>
    <path
       style="fill:none;fill-rule:evenodd;stroke:#000000;stroke-width:1px;stroke-linecap:butt;stroke-linejoin:miter;stroke-opacity:1"
       d="m 312.55598,40.189356 1e-5,13.637055"
       id="path4220-5"
       inkscape:connector-curvature="0"
       sodipodi:nodetypes="cc"
       inkscape:export-xdpi="90"
       inkscape:export-ydpi="90" />
  </g>
</svg>
