<?xml version="1.0" encoding="UTF-8" standalone="no"?>
<!-- Created with Inkscape (http://www.inkscape.org/) -->

<svg
   xmlns:dc="http://purl.org/dc/elements/1.1/"
   xmlns:cc="http://creativecommons.org/ns#"
   xmlns:rdf="http://www.w3.org/1999/02/22-rdf-syntax-ns#"
   xmlns:svg="http://www.w3.org/2000/svg"
   xmlns="http://www.w3.org/2000/svg"
   xmlns:sodipodi="http://sodipodi.sourceforge.net/DTD/sodipodi-0.dtd"
   xmlns:inkscape="http://www.inkscape.org/namespaces/inkscape"
   width="210mm"
   height="297mm"
   viewBox="0 0 744.09448819 1052.3622047"
   id="svg4853"
   version="1.1"
   inkscape:version="0.91 r"
   sodipodi:docname="ghzOpt.svg"
   inkscape:export-filename="/home/atul/Documents/gitHub/msThesis/MSThesis/Figs/ghzOpt"
   inkscape:export-xdpi="200.12"
   inkscape:export-ydpi="200.12">
  <defs
     id="defs4855">
    <clipPath
       clipPathUnits="userSpaceOnUse"
       id="clipPath254">
      <path
         d="m 263.25,215.082 30,0 0,-9 -30,0 0,9 z"
         id="path256"
         inkscape:connector-curvature="0" />
    </clipPath>
    <clipPath
       clipPathUnits="userSpaceOnUse"
       id="clipPath264">
      <path
         d="m 263,209 30,0 0,3 -30,0 0,-3 z"
         id="path266"
         inkscape:connector-curvature="0" />
    </clipPath>
    <clipPath
       clipPathUnits="userSpaceOnUse"
       id="clipPath230">
      <path
         d="m 263.25,247.082 30,0 0,-9 -30,0 0,9 z"
         id="path232"
         inkscape:connector-curvature="0" />
    </clipPath>
    <clipPath
       clipPathUnits="userSpaceOnUse"
       id="clipPath240">
      <path
         d="m 263,241 28,0 0,2 -28,0 0,-2 z"
         id="path242"
         inkscape:connector-curvature="0" />
    </clipPath>
    <clipPath
       clipPathUnits="userSpaceOnUse"
       id="clipPath18">
      <path
         d="m 9.25,264 260,0 0,-158.918 -260,0 0,158.918 z"
         id="path20"
         inkscape:connector-curvature="0" />
    </clipPath>
    <clipPath
       clipPathUnits="userSpaceOnUse"
       id="clipPath28">
      <path
         d="m 14,184 250,0 0,73 -250,0 0,-73 z"
         id="path30"
         inkscape:connector-curvature="0" />
    </clipPath>
    <clipPath
       clipPathUnits="userSpaceOnUse"
       id="clipPath116">
      <path
         d="m 29,185 48,0 0,4 -48,0 0,-4 z"
         id="path118"
         inkscape:connector-curvature="0" />
    </clipPath>
    <clipPath
       clipPathUnits="userSpaceOnUse"
       id="clipPath144">
      <path
         d="m 92,185 110,0 0,4 -110,0 0,-4 z"
         id="path146"
         inkscape:connector-curvature="0" />
    </clipPath>
    <clipPath
       clipPathUnits="userSpaceOnUse"
       id="clipPath188">
      <path
         d="m 216,185 48,0 0,4 -48,0 0,-4 z"
         id="path190"
         inkscape:connector-curvature="0" />
    </clipPath>
    <clipPath
       clipPathUnits="userSpaceOnUse"
       id="clipPath216">
      <path
         d="m 9,185 260,0 0,1 -260,0 0,-1 z"
         id="path218"
         inkscape:connector-curvature="0" />
    </clipPath>
    <clipPath
       clipPathUnits="userSpaceOnUse"
       id="clipPath18-3">
      <path
         d="m 9.25,264 260,0 0,-158.918 -260,0 0,158.918 z"
         id="path20-9"
         inkscape:connector-curvature="0" />
    </clipPath>
    <clipPath
       clipPathUnits="userSpaceOnUse"
       id="clipPath28-0">
      <path
         d="m 14,184 250,0 0,73 -250,0 0,-73 z"
         id="path30-4"
         inkscape:connector-curvature="0" />
    </clipPath>
    <clipPath
       clipPathUnits="userSpaceOnUse"
       id="clipPath116-2">
      <path
         d="m 29,185 48,0 0,4 -48,0 0,-4 z"
         id="path118-3"
         inkscape:connector-curvature="0" />
    </clipPath>
    <clipPath
       clipPathUnits="userSpaceOnUse"
       id="clipPath144-2">
      <path
         d="m 92,185 110,0 0,4 -110,0 0,-4 z"
         id="path146-7"
         inkscape:connector-curvature="0" />
    </clipPath>
    <clipPath
       clipPathUnits="userSpaceOnUse"
       id="clipPath188-8">
      <path
         d="m 216,185 48,0 0,4 -48,0 0,-4 z"
         id="path190-5"
         inkscape:connector-curvature="0" />
    </clipPath>
    <clipPath
       clipPathUnits="userSpaceOnUse"
       id="clipPath216-2">
      <path
         d="m 9,185 260,0 0,1 -260,0 0,-1 z"
         id="path218-7"
         inkscape:connector-curvature="0" />
    </clipPath>
    <clipPath
       clipPathUnits="userSpaceOnUse"
       id="clipPath230-4">
      <path
         d="m 263.25,247.082 30,0 0,-9 -30,0 0,9 z"
         id="path232-5"
         inkscape:connector-curvature="0" />
    </clipPath>
    <clipPath
       clipPathUnits="userSpaceOnUse"
       id="clipPath240-1">
      <path
         d="m 263,241 28,0 0,2 -28,0 0,-2 z"
         id="path242-0"
         inkscape:connector-curvature="0" />
    </clipPath>
    <clipPath
       clipPathUnits="userSpaceOnUse"
       id="clipPath254-6">
      <path
         d="m 263.25,215.082 30,0 0,-9 -30,0 0,9 z"
         id="path256-9"
         inkscape:connector-curvature="0" />
    </clipPath>
    <clipPath
       clipPathUnits="userSpaceOnUse"
       id="clipPath264-0">
      <path
         d="m 263,209 30,0 0,3 -30,0 0,-3 z"
         id="path266-8"
         inkscape:connector-curvature="0" />
    </clipPath>
    <clipPath
       clipPathUnits="userSpaceOnUse"
       id="clipPath300">
      <path
         d="m 9.25,202.5 260,0 0,-161 -260,0 0,161 z"
         id="path302"
         inkscape:connector-curvature="0" />
    </clipPath>
    <clipPath
       clipPathUnits="userSpaceOnUse"
       id="clipPath310">
      <path
         d="m 14,121 250,0 0,52 -250,0 0,-52 z"
         id="path312"
         inkscape:connector-curvature="0" />
    </clipPath>
    <clipPath
       clipPathUnits="userSpaceOnUse"
       id="clipPath394">
      <path
         d="m 29,121 48,0 0,4 -48,0 0,-4 z"
         id="path396"
         inkscape:connector-curvature="0" />
    </clipPath>
    <clipPath
       clipPathUnits="userSpaceOnUse"
       id="clipPath422">
      <path
         d="m 92,121 110,0 0,4 -110,0 0,-4 z"
         id="path424"
         inkscape:connector-curvature="0" />
    </clipPath>
    <clipPath
       clipPathUnits="userSpaceOnUse"
       id="clipPath466">
      <path
         d="m 216,121 48,0 0,4 -48,0 0,-4 z"
         id="path468"
         inkscape:connector-curvature="0" />
    </clipPath>
    <clipPath
       clipPathUnits="userSpaceOnUse"
       id="clipPath494">
      <path
         d="m 9,121 260,0 0,1 -260,0 0,-1 z"
         id="path496"
         inkscape:connector-curvature="0" />
    </clipPath>
    <clipPath
       clipPathUnits="userSpaceOnUse"
       id="clipPath508">
      <path
         d="m 262.398,157.172 32,0 0,-6.941 -32,0 0,6.941 z"
         id="path510"
         inkscape:connector-curvature="0" />
    </clipPath>
    <clipPath
       clipPathUnits="userSpaceOnUse"
       id="clipPath518">
      <path
         d="m 264,152 29,0 0,2 -29,0 0,-2 z"
         id="path520"
         inkscape:connector-curvature="0" />
    </clipPath>
    <clipPath
       clipPathUnits="userSpaceOnUse"
       id="clipPath544">
      <path
         d="m 9.25,140.758 260,0 0,-140.758 -260,0 0,140.758 z"
         id="path546"
         inkscape:connector-curvature="0" />
    </clipPath>
    <clipPath
       clipPathUnits="userSpaceOnUse"
       id="clipPath554">
      <path
         d="M 14,9 264,9 264,111 14,111 14,9 Z"
         id="path556"
         inkscape:connector-curvature="0" />
    </clipPath>
    <clipPath
       clipPathUnits="userSpaceOnUse"
       id="clipPath638">
      <path
         d="m 29,59 48,0 0,4 -48,0 0,-4 z"
         id="path640"
         inkscape:connector-curvature="0" />
    </clipPath>
    <clipPath
       clipPathUnits="userSpaceOnUse"
       id="clipPath666">
      <path
         d="m 92,59 110,0 0,4 -110,0 0,-4 z"
         id="path668"
         inkscape:connector-curvature="0" />
    </clipPath>
    <clipPath
       clipPathUnits="userSpaceOnUse"
       id="clipPath710">
      <path
         d="m 216,59 48,0 0,4 -48,0 0,-4 z"
         id="path712"
         inkscape:connector-curvature="0" />
    </clipPath>
    <clipPath
       clipPathUnits="userSpaceOnUse"
       id="clipPath738">
      <path
         d="m 9,59 260,0 0,2 -260,0 0,-2 z"
         id="path740"
         inkscape:connector-curvature="0" />
    </clipPath>
    <clipPath
       clipPathUnits="userSpaceOnUse"
       id="clipPath752">
      <path
         d="m 262.465,95.301 30.777,0 0,-6.777 -30.777,0 0,6.777 z"
         id="path754"
         inkscape:connector-curvature="0" />
    </clipPath>
    <clipPath
       clipPathUnits="userSpaceOnUse"
       id="clipPath762">
      <path
         d="m 264,91 28,0 0,1 -28,0 0,-1 z"
         id="path764"
         inkscape:connector-curvature="0" />
    </clipPath>
  </defs>
  <sodipodi:namedview
     id="base"
     pagecolor="#ffffff"
     bordercolor="#666666"
     borderopacity="1.0"
     inkscape:pageopacity="0.0"
     inkscape:pageshadow="2"
     inkscape:zoom="1.4"
     inkscape:cx="369.18218"
     inkscape:cy="695.73794"
     inkscape:document-units="px"
     inkscape:current-layer="g772"
     showgrid="false"
     inkscape:window-width="1313"
     inkscape:window-height="744"
     inkscape:window-x="53"
     inkscape:window-y="24"
     inkscape:window-maximized="1" />
  <metadata
     id="metadata4858">
    <rdf:RDF>
      <cc:Work
         rdf:about="">
        <dc:format>image/svg+xml</dc:format>
        <dc:type
           rdf:resource="http://purl.org/dc/dcmitype/StillImage" />
        <dc:title></dc:title>
      </cc:Work>
    </rdf:RDF>
  </metadata>
  <g
     inkscape:label="Layer 1"
     inkscape:groupmode="layer"
     id="layer1">
    <g
       transform="matrix(1.25,0,0,-1.25,192.41931,579.28017)"
       id="g12" />
    <g
       transform="matrix(1.25,0,0,-1.25,192.41931,579.28017)"
       id="g14">
      <g
         id="g16"
         clip-path="url(#clipPath18-3)">
        <g
           id="g22">
          <g
             id="g24">
            <g
               id="g26"
               clip-path="url(#clipPath28-0)">
              <g
                 id="g32">
                <g
                   id="g34"
                   transform="translate(0,264)">
                  <path
                     d="m 14.609,-78.754 36.157,0"
                     style="fill:none;stroke:#ff0000;stroke-width:1.15199995;stroke-linecap:square;stroke-linejoin:miter;stroke-miterlimit:3.25;stroke-dasharray:2.88, 2.88;stroke-dashoffset:0;stroke-opacity:1"
                     id="path36"
                     inkscape:connector-curvature="0" />
                </g>
                <g
                   id="g38"
                   transform="translate(0,264)">
                  <path
                     d="m 51.316,-78.754 2.2,0 0.082,0.004 0.164,0 0.078,0.004 0.164,0.008 0.164,0.015 0.082,0.012 0.082,0.02 0.078,0.019 0.082,0.024 0.082,0.031 0.082,0.039 0.082,0.051 0.082,0.058 0.082,0.071 0.082,0.086 0.078,0.097 0.083,0.117 0.082,0.137 0.078,0.145 0.074,0.164 0.074,0.187 0.078,0.207 0.074,0.235 0.079,0.257 0.074,0.289 0.078,0.313 0.074,0.348 0.078,0.382 0.074,0.411 0.079,0.449 0.074,0.484 0.074,0.52 0.152,1.16 0.079,0.64 0.074,0.676 0.152,1.481 0.078,0.804 0.074,0.844 0.153,1.813 0.074,0.968 0.078,1.004 0.152,2.133 0.305,4.692 0.074,1.257 0.078,1.286 0.149,2.648 0.305,5.555 0.609,11.566 0.074,1.434 0.078,1.421 0.153,2.79 0.074,1.363 0.074,1.34 0.152,2.597 0.079,1.25 0.074,1.215 0.152,2.309 0.078,1.09 0.075,1.046 0.152,1.942 0.082,0.965 0.082,0.902 0.082,0.836 0.082,0.766 0.082,0.695 0.086,0.625 0.082,0.547 0.082,0.472 0.082,0.395 0.082,0.316 0.082,0.235 0.082,0.16 0.082,0.078 0.082,-0.004 0.082,-0.082 0.086,-0.164 0.082,-0.242 0.082,-0.324 0.082,-0.399 0.082,-0.476 0.082,-0.555 0.082,-0.625 0.082,-0.703 0.082,-0.77 0.082,-0.84 0.086,-0.906 0.164,-2.004 0.082,-1.09 0.082,-1.148 0.165,-2.449 0.082,-1.297 0.082,-1.344 0.168,-2.797 0.328,-5.957 0.66,-12.527 0.082,-1.551 0.082,-1.535 0.164,-3.012 0.328,-5.699 0.082,-1.344 0.086,-1.304 0.164,-2.489 0.082,-1.179 0.082,-1.137 0.164,-2.129 0.078,-0.93 0.079,-0.886 0.152,-1.649 0.078,-0.761 0.074,-0.719 0.156,-1.309 0.075,-0.594 0.078,-0.554 0.078,-0.516 0.074,-0.476 0.078,-0.442 0.078,-0.406 0.079,-0.371 0.074,-0.34 0.078,-0.309 0.078,-0.281 0.074,-0.25 0.078,-0.223 0.078,-0.203 0.075,-0.175 0.078,-0.157 0.078,-0.14 0.074,-0.118 0.078,-0.105 0.078,-0.09 0.079,-0.074 0.074,-0.066 0.078,-0.055 0.078,-0.043 0.074,-0.039 0.156,-0.055 0.075,-0.019 0.078,-0.016 0.078,-0.012 0.074,-0.008 0.156,-0.015 0.079,-0.004 0.074,0 0.078,-0.004 0.152,0 0.078,-0.004 2.59,0"
                     style="fill:none;stroke:#ff0000;stroke-width:1.15199995;stroke-linecap:square;stroke-linejoin:miter;stroke-miterlimit:3.25;stroke-dasharray:2.88, 2.88;stroke-dashoffset:0;stroke-opacity:1"
                     id="path40"
                     inkscape:connector-curvature="0" />
                </g>
                <g
                   id="g42"
                   transform="translate(0,264)">
                  <path
                     d="m 71.645,-78.754 41.242,0"
                     style="fill:none;stroke:#ff0000;stroke-width:1.15199995;stroke-linecap:square;stroke-linejoin:miter;stroke-miterlimit:3.25;stroke-dasharray:2.88, 2.88;stroke-dashoffset:0;stroke-opacity:1"
                     id="path44"
                     inkscape:connector-curvature="0" />
                </g>
                <g
                   id="g46"
                   transform="translate(0,264)">
                  <path
                     d="m 113.41,-78.754 2.242,0 0.086,0.004 0.164,0 0.082,0.004 0.086,0.004 0.164,0.015 0.078,0.008 0.083,0.012 0.164,0.039 0.164,0.063 0.082,0.043 0.078,0.05 0.082,0.063 0.082,0.078 0.082,0.086 0.082,0.105 0.082,0.125 0.082,0.141 0.082,0.164 0.082,0.188 0.082,0.21 0.078,0.239 0.082,0.269 0.082,0.301 0.082,0.336 0.082,0.367 0.082,0.41 0.082,0.442 0.082,0.488 0.082,0.527 0.083,0.571 0.078,0.613 0.164,1.371 0.082,0.754 0.082,0.801 0.164,1.746 0.082,0.945 0.078,0.992 0.164,2.121 0.082,1.133 0.082,1.172 0.164,2.473 0.324,5.394 0.082,1.43 0.082,1.457 0.164,2.98 0.325,6.161 0.656,12.308 0.074,1.371 0.078,1.344 0.149,2.609 0.078,1.254 0.078,1.219 0.152,2.324 0.075,1.094 0.074,1.051 0.078,1.004 0.074,0.953 0.078,0.898 0.078,0.848 0.149,1.52 0.078,0.667 0.074,0.61 0.078,0.547 0.074,0.48 0.079,0.418 0.074,0.352 0.078,0.281 0.074,0.219 0.078,0.148 0.075,0.078 0.078,0.012 0.074,-0.059 0.078,-0.125 0.074,-0.191 0.078,-0.262 0.075,-0.332 0.078,-0.394 0.074,-0.461 0.078,-0.524 0.074,-0.59 0.078,-0.648 0.075,-0.711 0.152,-1.598 0.078,-0.882 0.074,-0.934 0.153,-2.023 0.074,-1.082 0.078,-1.125 0.152,-2.379 0.078,-1.242 0.075,-1.278 0.152,-2.644 0.305,-5.571 0.609,-11.59 0.082,-1.554 0.082,-1.535 0.164,-3.02 0.332,-5.715 0.082,-1.343 0.082,-1.309 0.164,-2.496 0.086,-1.18 0.082,-1.137 0.164,-2.136 0.082,-0.996 0.082,-0.95 0.082,-0.898 0.086,-0.852 0.082,-0.8 0.082,-0.754 0.165,-1.364 0.082,-0.609 0.082,-0.57 0.082,-0.52 0.082,-0.48 0.082,-0.438 0.086,-0.402 0.082,-0.363 0.082,-0.325 0.082,-0.293 0.082,-0.265 0.082,-0.231 0.082,-0.207 0.086,-0.179 0.082,-0.157 0.082,-0.132 0.082,-0.118 0.082,-0.101 0.082,-0.082 0.082,-0.071 0.082,-0.058 0.086,-0.047 0.082,-0.039 0.082,-0.031 0.082,-0.028 0.082,-0.019 0.164,-0.024 0.086,-0.007 0.082,-0.008 0.246,-0.012 0.164,0 0.082,-0.004 2.563,0"
                     style="fill:none;stroke:#ff0000;stroke-width:1.15199995;stroke-linecap:square;stroke-linejoin:miter;stroke-miterlimit:3.25;stroke-dasharray:2.88, 2.88;stroke-dashoffset:0;stroke-opacity:1"
                     id="path48"
                     inkscape:connector-curvature="0" />
                </g>
                <g
                   id="g50"
                   transform="translate(0,264)">
                  <path
                     d="m 133.91,-78.754 41.098,0"
                     style="fill:none;stroke:#ff0000;stroke-width:1.15199995;stroke-linecap:square;stroke-linejoin:miter;stroke-miterlimit:3.25;stroke-dasharray:2.88, 2.88;stroke-dashoffset:0;stroke-opacity:1"
                     id="path52"
                     inkscape:connector-curvature="0" />
                </g>
                <g
                   id="g54"
                   transform="translate(0,264)">
                  <path
                     d="m 175.68,-78.754 2.058,0 0.078,0.004 0.149,0 0.074,0.004 0.078,0 0.149,0.008 0.074,0.008 0.078,0.007 0.074,0.012 0.074,0.016 0.079,0.019 0.074,0.02 0.148,0.062 0.078,0.043 0.075,0.051 0.074,0.059 0.078,0.07 0.074,0.082 0.074,0.094 0.078,0.109 0.075,0.125 0.074,0.145 0.074,0.164 0.078,0.183 0.074,0.207 0.075,0.231 0.074,0.258 0.078,0.281 0.074,0.312 0.074,0.344 0.075,0.375 0.078,0.406 0.074,0.442 0.152,0.988 0.075,0.551 0.074,0.59 0.152,1.296 0.074,0.708 0.075,0.75 0.152,1.617 0.074,0.871 0.078,0.914 0.149,1.941 0.3,4.336 0.082,1.274 0.083,1.312 0.164,2.731 0.328,5.82 0.652,12.383 0.082,1.554 0.082,1.539 0.164,3.032 0.082,1.484 0.082,1.457 0.16,2.824 0.082,1.36 0.082,1.316 0.165,2.504 0.082,1.176 0.082,1.125 0.164,2.078 0.082,0.949 0.082,0.883 0.078,0.82 0.082,0.75 0.082,0.68 0.082,0.609 0.082,0.536 0.082,0.46 0.082,0.383 0.082,0.309 0.082,0.226 0.082,0.153 0.082,0.07 0.082,-0.004 0.082,-0.09 0.082,-0.164 0.082,-0.242 0.082,-0.324 0.078,-0.395 0.082,-0.476 0.082,-0.547 0.083,-0.621 0.082,-0.695 0.082,-0.762 0.082,-0.832 0.082,-0.899 0.164,-1.98 0.082,-1.078 0.078,-1.133 0.164,-2.426 0.078,-1.195 0.074,-1.231 0.157,-2.57 0.304,-5.461 0.61,-11.574 0.074,-1.449 0.078,-1.438 0.152,-2.84 0.305,-5.457 0.074,-1.304 0.078,-1.278 0.153,-2.457 0.304,-4.496 0.078,-1.031 0.075,-0.988 0.152,-1.86 0.078,-0.867 0.074,-0.824 0.153,-1.524 0.078,-0.699 0.074,-0.66 0.078,-0.621 0.074,-0.578 0.079,-0.539 0.074,-0.504 0.152,-0.895 0.078,-0.394 0.078,-0.364 0.075,-0.328 0.078,-0.3 0.074,-0.274 0.078,-0.242 0.074,-0.219 0.078,-0.199 0.075,-0.172 0.078,-0.152 0.074,-0.137 0.078,-0.113 0.074,-0.102 0.078,-0.09 0.075,-0.074 0.078,-0.062 0.082,-0.059 0.082,-0.043 0.082,-0.039 0.082,-0.031 0.086,-0.024 0.082,-0.019 0.082,-0.016 0.082,-0.012 0.082,-0.007 0.082,-0.004 0.086,-0.008 0.082,0 0.082,-0.004 0.082,0 0.082,-0.004 2.637,0"
                     style="fill:none;stroke:#ff0000;stroke-width:1.15199995;stroke-linecap:square;stroke-linejoin:miter;stroke-miterlimit:3.25;stroke-dasharray:2.88, 2.88;stroke-dashoffset:0;stroke-opacity:1"
                     id="path56"
                     inkscape:connector-curvature="0" />
                </g>
                <g
                   id="g58"
                   transform="translate(0,264)">
                  <path
                     d="m 195.895,-78.754 41.238,0"
                     style="fill:none;stroke:#ff0000;stroke-width:1.15199995;stroke-linecap:square;stroke-linejoin:miter;stroke-miterlimit:3.25;stroke-dasharray:2.88, 2.88;stroke-dashoffset:0;stroke-opacity:1"
                     id="path60"
                     inkscape:connector-curvature="0" />
                </g>
                <g
                   id="g62"
                   transform="translate(0,264)">
                  <path
                     d="m 237.75,-78.754 2.156,0 0.078,0.004 0.153,0 0.156,0.008 0.074,0.004 0.156,0.015 0.075,0.012 0.078,0.012 0.078,0.019 0.074,0.024 0.078,0.027 0.078,0.035 0.078,0.039 0.075,0.051 0.078,0.063 0.078,0.07 0.074,0.082 0.078,0.098 0.078,0.113 0.075,0.133 0.078,0.148 0.078,0.168 0.078,0.191 0.074,0.215 0.078,0.243 0.078,0.265 0.075,0.297 0.078,0.328 0.078,0.36 0.078,0.39 0.074,0.426 0.078,0.465 0.153,1.039 0.078,0.566 0.074,0.606 0.152,1.332 0.075,0.726 0.074,0.766 0.152,1.656 0.074,0.887 0.079,0.93 0.148,1.976 0.301,4.41 0.078,1.188 0.074,1.222 0.153,2.532 0.3,5.363 0.606,11.418 0.074,1.437 0.074,1.434 0.153,2.832 0.3,5.457 0.078,1.301 0.075,1.273 0.148,2.45 0.078,1.164 0.074,1.129 0.153,2.125 0.074,0.992 0.074,0.941 0.078,0.891 0.075,0.836 0.074,0.781 0.078,0.727 0.074,0.664 0.074,0.601 0.078,0.543 0.075,0.481 0.074,0.418 0.078,0.347 0.074,0.289 0.074,0.215 0.075,0.152 0.078,0.086 0.082,0.016 0.082,-0.062 0.082,-0.145 0.082,-0.219 0.082,-0.301 0.082,-0.378 0.082,-0.454 0.082,-0.527 0.078,-0.602 0.082,-0.675 0.082,-0.746 0.082,-0.813 0.082,-0.883 0.082,-0.945 0.164,-2.07 0.082,-1.121 0.082,-1.176 0.165,-2.5 0.328,-5.496 0.656,-12.203 0.078,-1.567 0.082,-1.562 0.164,-3.106 0.328,-6.015 0.082,-1.446 0.082,-1.418 0.164,-2.738 0.329,-5.027 0.082,-1.153 0.082,-1.105 0.164,-2.078 0.082,-0.965 0.082,-0.918 0.164,-1.695 0.078,-0.774 0.082,-0.73 0.082,-0.68 0.082,-0.633 0.082,-0.59 0.082,-0.546 0.164,-0.961 0.078,-0.395 0.074,-0.363 0.079,-0.332 0.074,-0.297 0.078,-0.27 0.078,-0.246 0.074,-0.219 0.078,-0.195 0.075,-0.172 0.078,-0.152 0.074,-0.133 0.078,-0.117 0.078,-0.102 0.074,-0.086 0.079,-0.074 0.074,-0.062 0.078,-0.051 0.074,-0.043 0.078,-0.039 0.074,-0.027 0.079,-0.024 0.074,-0.019 0.078,-0.016 0.078,-0.012 0.074,-0.008 0.078,-0.007 0.075,-0.008 0.078,-0.004 0.074,0 0.078,-0.004 0.152,0 0.079,-0.004 2.628,0"
                     style="fill:none;stroke:#ff0000;stroke-width:1.15199995;stroke-linecap:square;stroke-linejoin:miter;stroke-miterlimit:3.25;stroke-dasharray:2.88, 2.88;stroke-dashoffset:0;stroke-opacity:1"
                     id="path64"
                     inkscape:connector-curvature="0" />
                </g>
                <g
                   id="g66"
                   transform="translate(0,264)">
                  <path
                     d="m 257.977,-78.754 5.117,0"
                     style="fill:none;stroke:#ff0000;stroke-width:1.15199995;stroke-linecap:square;stroke-linejoin:miter;stroke-miterlimit:3.25;stroke-dasharray:2.88, 2.88;stroke-dashoffset:0;stroke-opacity:1"
                     id="path68"
                     inkscape:connector-curvature="0" />
                </g>
                <g
                   id="g70"
                   transform="translate(0,264)">
                  <path
                     d="m 14.609,-78.754 5.098,0"
                     style="fill:none;stroke:#0000ff;stroke-width:1.15199995;stroke-linecap:square;stroke-linejoin:miter;stroke-miterlimit:3.25;stroke-dasharray:none;stroke-opacity:1"
                     id="path72"
                     inkscape:connector-curvature="0" />
                </g>
                <g
                   id="g74"
                   transform="translate(0,264)">
                  <path
                     d="m 20.148,-78.754 2.313,0 0.082,0.004 0.164,0 0.082,0.004 0.086,0.004 0.082,0.004 0.082,0.008 0.164,0.023 0.082,0.016 0.082,0.023 0.086,0.027 0.082,0.036 0.082,0.043 0.082,0.05 0.082,0.063 0.082,0.074 0.086,0.09 0.082,0.109 0.082,0.125 0.082,0.141 0.082,0.168 0.082,0.191 0.082,0.215 0.086,0.246 0.082,0.278 0.082,0.308 0.082,0.34 0.079,0.355 0.078,0.383 0.074,0.422 0.078,0.457 0.078,0.492 0.078,0.535 0.153,1.184 0.078,0.652 0.074,0.696 0.156,1.519 0.078,0.821 0.078,0.867 0.153,1.859 0.078,0.992 0.078,1.032 0.152,2.183 0.309,4.813 0.078,1.285 0.078,1.316 0.153,2.711 0.308,5.672 0.078,1.457 0.078,1.465 0.153,2.945 0.308,5.879 0.079,1.445 0.078,1.434 0.152,2.805 0.309,5.304 0.078,1.239 0.074,1.203 0.156,2.281 0.078,1.07 0.078,1.02 0.153,1.887 0.078,0.859 0.074,0.801 0.078,0.742 0.078,0.68 0.078,0.617 0.079,0.555 0.074,0.488 0.078,0.418 0.074,0.347 0.078,0.278 0.075,0.215 0.078,0.144 0.074,0.078 0.074,0.012 0.078,-0.055 0.074,-0.125 0.075,-0.195 0.078,-0.258 0.074,-0.324 0.074,-0.391 0.078,-0.457 0.075,-0.519 0.078,-0.578 0.074,-0.645 0.074,-0.703 0.078,-0.758 0.149,-1.691 0.078,-0.922 0.074,-0.977 0.152,-2.093 0.075,-1.114 0.078,-1.156 0.148,-2.426 0.305,-5.234 0.074,-1.371 0.074,-1.391 0.153,-2.832 0.304,-5.765 0.074,-1.446 0.075,-1.441 0.152,-2.863 0.301,-5.563 0.078,-1.34 0.074,-1.32 0.153,-2.555 0.074,-1.234 0.074,-1.203 0.152,-2.301 0.078,-1.098 0.075,-1.058 0.152,-2.008 0.074,-0.942 0.074,-0.902 0.153,-1.684 0.082,-0.843 0.082,-0.797 0.082,-0.746 0.082,-0.703 0.082,-0.653 0.082,-0.609 0.164,-1.082 0.082,-0.481 0.082,-0.437 0.082,-0.399 0.082,-0.363 0.082,-0.324 0.082,-0.293 0.082,-0.262 0.082,-0.234 0.082,-0.207 0.082,-0.18 0.082,-0.16 0.082,-0.133 0.082,-0.121 0.082,-0.097 0.083,-0.086 0.082,-0.071 0.082,-0.058 0.082,-0.051 0.082,-0.039 0.082,-0.031 0.082,-0.028 0.082,-0.019 0.082,-0.016 0.082,-0.012 0.164,-0.015 0.246,-0.012 0.164,0 0.082,-0.004 2.582,0"
                     style="fill:none;stroke:#0000ff;stroke-width:1.15199995;stroke-linecap:square;stroke-linejoin:miter;stroke-miterlimit:3.25;stroke-dasharray:none;stroke-opacity:1"
                     id="path76"
                     inkscape:connector-curvature="0" />
                </g>
                <g
                   id="g78"
                   transform="translate(0,264)">
                  <path
                     d="m 41.027,-78.754 40.801,0"
                     style="fill:none;stroke:#0000ff;stroke-width:1.15199995;stroke-linecap:square;stroke-linejoin:miter;stroke-miterlimit:3.25;stroke-dasharray:none;stroke-opacity:1"
                     id="path80"
                     inkscape:connector-curvature="0" />
                </g>
                <g
                   id="g82"
                   transform="translate(0,264)">
                  <path
                     d="m 82.793,-78.754 1.754,0 0.078,0.004 0.152,0 0.078,0.004 0.075,0 0.078,0.004 0.074,0.004 0.078,0.008 0.074,0.011 0.086,0.012 0.082,0.016 0.082,0.019 0.082,0.027 0.082,0.036 0.086,0.043 0.082,0.05 0.082,0.063 0.082,0.074 0.082,0.09 0.086,0.105 0.082,0.122 0.082,0.144 0.083,0.164 0.082,0.192 0.082,0.214 0.086,0.246 0.082,0.274 0.082,0.305 0.082,0.343 0.082,0.375 0.086,0.418 0.082,0.457 0.082,0.496 0.082,0.539 0.082,0.586 0.086,0.633 0.082,0.68 0.082,0.726 0.082,0.774 0.164,1.695 0.082,0.922 0.086,0.973 0.164,2.086 0.332,4.726 0.082,1.289 0.082,1.328 0.168,2.766 0.328,5.895 0.082,1.535 0.086,1.547 0.164,3.14 0.332,6.324 0.082,1.567 0.082,1.558 0.168,3.063 0.328,5.809 0.082,1.339 0.082,1.297 0.164,2.465 0.079,1.156 0.082,1.106 0.164,2.039 0.082,0.93 0.078,0.867 0.082,0.801 0.082,0.73 0.082,0.664 0.078,0.59 0.082,0.519 0.082,0.446 0.082,0.367 0.082,0.293 0.078,0.215 0.082,0.14 0.082,0.059 0.082,-0.016 0.082,-0.097 0.082,-0.172 0.078,-0.254 0.083,-0.328 0.082,-0.403 0.082,-0.48 0.082,-0.551 0.078,-0.625 0.082,-0.695 0.082,-0.762 0.082,-0.832 0.078,-0.894 0.164,-1.977 0.082,-1.074 0.082,-1.129 0.16,-2.414 0.082,-1.274 0.082,-1.32 0.16,-2.75 0.329,-5.859 0.082,-1.516 0.078,-1.535 0.164,-3.094 0.324,-6.203 0.082,-1.531 0.082,-1.52 0.16,-2.984 0.324,-5.664 0.079,-1.25 0.074,-1.219 0.152,-2.336 0.074,-1.113 0.079,-1.082 0.148,-2.039 0.078,-0.965 0.074,-0.918 0.153,-1.723 0.074,-0.797 0.078,-0.757 0.152,-1.395 0.075,-0.633 0.078,-0.597 0.074,-0.555 0.074,-0.52 0.078,-0.484 0.074,-0.445 0.153,-0.789 0.074,-0.344 0.078,-0.316 0.074,-0.286 0.078,-0.257 0.075,-0.235 0.074,-0.207 0.078,-0.187 0.074,-0.164 0.078,-0.145 0.075,-0.125 0.074,-0.109 0.078,-0.098 0.074,-0.082 0.078,-0.07 0.075,-0.059 0.074,-0.047 0.078,-0.043 0.074,-0.035 0.074,-0.027 0.078,-0.024 0.075,-0.015 0.078,-0.016 0.074,-0.012 0.074,-0.007 0.078,-0.008 0.075,-0.004 0.078,-0.004 0.074,-0.004 0.152,0 0.074,-0.004 2.657,0"
                     style="fill:none;stroke:#0000ff;stroke-width:1.15199995;stroke-linecap:square;stroke-linejoin:miter;stroke-miterlimit:3.25;stroke-dasharray:none;stroke-opacity:1"
                     id="path84"
                     inkscape:connector-curvature="0" />
                </g>
                <g
                   id="g86"
                   transform="translate(0,264)">
                  <path
                     d="m 103.211,-78.754 40.738,0"
                     style="fill:none;stroke:#0000ff;stroke-width:1.15199995;stroke-linecap:square;stroke-linejoin:miter;stroke-miterlimit:3.25;stroke-dasharray:none;stroke-opacity:1"
                     id="path88"
                     inkscape:connector-curvature="0" />
                </g>
                <g
                   id="g90"
                   transform="translate(0,264)">
                  <path
                     d="m 144.164,-78.754 2.524,0 0.074,0.004 0.156,0 0.074,0.004 0.078,0 0.078,0.004 0.075,0.008 0.078,0.007 0.074,0.008 0.078,0.012 0.074,0.016 0.078,0.019 0.075,0.027 0.078,0.028 0.078,0.039 0.074,0.043 0.078,0.055 0.078,0.066 0.075,0.074 0.078,0.09 0.074,0.102 0.078,0.117 0.074,0.14 0.078,0.153 0.075,0.176 0.078,0.199 0.078,0.222 0.074,0.25 0.078,0.274 0.074,0.305 0.079,0.335 0.074,0.368 0.078,0.398 0.078,0.438 0.074,0.472 0.157,1.055 0.074,0.586 0.078,0.625 0.152,1.379 0.074,0.75 0.079,0.789 0.152,1.711 0.078,0.918 0.074,0.961 0.157,2.039 0.304,4.535 0.074,1.223 0.079,1.253 0.152,2.598 0.305,5.492 0.086,1.539 0.082,1.555 0.164,3.148 0.332,6.336 0.082,1.567 0.082,1.554 0.168,3.055 0.332,5.781 0.082,1.352 0.082,1.312 0.168,2.477 0.082,1.16 0.082,1.102 0.168,2.027 0.082,0.918 0.082,0.848 0.082,0.781 0.082,0.711 0.086,0.633 0.082,0.562 0.082,0.481 0.082,0.406 0.086,0.328 0.082,0.246 0.082,0.164 0.082,0.086 0.082,0.004 0.086,-0.078 0.082,-0.16 0.082,-0.238 0.082,-0.321 0.086,-0.398 0.082,-0.477 0.082,-0.554 0.082,-0.629 0.082,-0.703 0.086,-0.774 0.082,-0.844 0.082,-0.914 0.082,-0.976 0.168,-2.137 0.082,-1.156 0.082,-1.207 0.168,-2.567 0.082,-1.351 0.082,-1.391 0.168,-2.887 0.332,-6.097 0.078,-1.539 0.082,-1.547 0.164,-3.113 0.325,-6.18 0.082,-1.516 0.082,-1.5 0.16,-2.93 0.328,-5.515 0.082,-1.293 0.078,-1.254 0.164,-2.387 0.082,-1.129 0.082,-1.082 0.164,-2.031 0.078,-0.941 0.082,-0.899 0.082,-0.847 0.083,-0.805 0.082,-0.754 0.078,-0.707 0.164,-1.281 0.082,-0.571 0.082,-0.531 0.082,-0.484 0.078,-0.449 0.082,-0.407 0.082,-0.371 0.082,-0.34 0.082,-0.3 0.082,-0.274 0.078,-0.238 0.082,-0.215 0.082,-0.187 0.082,-0.168 0.082,-0.145 0.082,-0.121 0.082,-0.109 0.079,-0.09 0.082,-0.075 0.082,-0.066 0.082,-0.051 0.082,-0.043 0.078,-0.035 0.082,-0.031 0.164,-0.039 0.164,-0.024 0.078,-0.007 0.082,-0.008 0.082,-0.004 0.082,0 0.082,-0.004 0.074,0 0.079,-0.004 2.636,0"
                     style="fill:none;stroke:#0000ff;stroke-width:1.15199995;stroke-linecap:square;stroke-linejoin:miter;stroke-miterlimit:3.25;stroke-dasharray:none;stroke-opacity:1"
                     id="path92"
                     inkscape:connector-curvature="0" />
                </g>
                <g
                   id="g94"
                   transform="translate(0,264)">
                  <path
                     d="m 164.902,-78.754 41.168,0"
                     style="fill:none;stroke:#0000ff;stroke-width:1.15199995;stroke-linecap:square;stroke-linejoin:miter;stroke-miterlimit:3.25;stroke-dasharray:none;stroke-opacity:1"
                     id="path96"
                     inkscape:connector-curvature="0" />
                </g>
                <g
                   id="g98"
                   transform="translate(0,264)">
                  <path
                     d="m 206.918,-78.754 1.887,0 0.082,0.004 0.168,0 0.246,0.012 0.164,0.015 0.082,0.012 0.082,0.016 0.082,0.019 0.082,0.028 0.082,0.031 0.082,0.039 0.082,0.047 0.082,0.062 0.082,0.071 0.082,0.086 0.082,0.097 0.082,0.117 0.082,0.137 0.082,0.156 0.082,0.18 0.082,0.207 0.082,0.234 0.082,0.262 0.082,0.293 0.082,0.324 0.083,0.364 0.082,0.398 0.082,0.438 0.082,0.476 0.082,0.524 0.082,0.562 0.082,0.609 0.082,0.653 0.082,0.699 0.082,0.75 0.082,0.797 0.164,1.738 0.078,0.875 0.074,0.918 0.156,1.961 0.305,4.395 0.078,1.191 0.075,1.223 0.156,2.543 0.304,5.41 0.079,1.406 0.074,1.426 0.156,2.887 0.305,5.851 0.613,11.352 0.078,1.328 0.074,1.297 0.153,2.488 0.078,1.191 0.078,1.145 0.152,2.16 0.078,1.008 0.075,0.957 0.078,0.902 0.074,0.848 0.078,0.789 0.078,0.734 0.074,0.668 0.079,0.61 0.074,0.543 0.078,0.48 0.078,0.41 0.074,0.348 0.078,0.277 0.078,0.207 0.075,0.141 0.078,0.074 0.074,0 0.078,-0.066 0.078,-0.137 0.075,-0.207 0.078,-0.274 0.074,-0.343 0.078,-0.41 0.078,-0.477 0.082,-0.59 0.082,-0.664 0.082,-0.734 0.086,-0.809 0.082,-0.879 0.082,-0.941 0.168,-2.078 0.082,-1.129 0.082,-1.18 0.168,-2.519 0.332,-5.559 0.082,-1.477 0.082,-1.507 0.168,-3.075 0.332,-6.312 0.664,-12.41 0.082,-1.461 0.082,-1.434 0.168,-2.765 0.082,-1.325 0.082,-1.289 0.168,-2.445 0.082,-1.156 0.082,-1.11 0.168,-2.074 0.082,-0.965 0.083,-0.918 0.167,-1.679 0.083,-0.77 0.082,-0.719 0.085,-0.671 0.083,-0.622 0.082,-0.578 0.082,-0.535 0.086,-0.488 0.082,-0.449 0.082,-0.411 0.086,-0.367 0.082,-0.336 0.082,-0.3 0.082,-0.266 0.082,-0.238 0.086,-0.211 0.082,-0.184 0.082,-0.156 0.082,-0.137 0.078,-0.117 0.082,-0.102 0.082,-0.086 0.082,-0.07 0.082,-0.058 0.082,-0.051 0.082,-0.039 0.082,-0.032 0.078,-0.027 0.164,-0.039 0.082,-0.012 0.164,-0.015 0.246,-0.012 0.161,0 0.082,-0.004 2.593,0"
                     style="fill:none;stroke:#0000ff;stroke-width:1.15199995;stroke-linecap:square;stroke-linejoin:miter;stroke-miterlimit:3.25;stroke-dasharray:none;stroke-opacity:1"
                     id="path100"
                     inkscape:connector-curvature="0" />
                </g>
                <g
                   id="g102"
                   transform="translate(0,264)">
                  <path
                     d="m 226.957,-78.754 36.137,0"
                     style="fill:none;stroke:#0000ff;stroke-width:1.15199995;stroke-linecap:square;stroke-linejoin:miter;stroke-miterlimit:3.25;stroke-dasharray:none;stroke-opacity:1"
                     id="path104"
                     inkscape:connector-curvature="0" />
                </g>
                <g
                   id="g106"
                   transform="translate(0,264)">
                  <path
                     d="m 14.609,-78.754 0,2.906"
                     style="fill:none;stroke:#000000;stroke-width:0.36000001;stroke-linecap:butt;stroke-linejoin:miter;stroke-miterlimit:3.25;stroke-dasharray:none;stroke-opacity:1"
                     id="path108"
                     inkscape:connector-curvature="0" />
                </g>
              </g>
            </g>
          </g>
        </g>
        <g
           id="g110">
          <g
             id="g112">
            <g
               id="g114"
               clip-path="url(#clipPath116-2)">
              <g
                 id="g120">
                <g
                   id="g122"
                   transform="translate(0,264)">
                  <path
                     d="m 30.141,-78.754 0,1.742"
                     style="fill:none;stroke:#000000;stroke-width:0.36000001;stroke-linecap:butt;stroke-linejoin:miter;stroke-miterlimit:3.25;stroke-dasharray:none;stroke-opacity:1"
                     id="path124"
                     inkscape:connector-curvature="0" />
                </g>
                <g
                   id="g126"
                   transform="translate(0,264)">
                  <path
                     d="m 45.668,-78.754 0,1.742"
                     style="fill:none;stroke:#000000;stroke-width:0.36000001;stroke-linecap:butt;stroke-linejoin:miter;stroke-miterlimit:3.25;stroke-dasharray:none;stroke-opacity:1"
                     id="path128"
                     inkscape:connector-curvature="0" />
                </g>
                <g
                   id="g130"
                   transform="translate(0,264)">
                  <path
                     d="m 61.199,-78.754 0,1.742"
                     style="fill:none;stroke:#000000;stroke-width:0.36000001;stroke-linecap:butt;stroke-linejoin:miter;stroke-miterlimit:3.25;stroke-dasharray:none;stroke-opacity:1"
                     id="path132"
                     inkscape:connector-curvature="0" />
                </g>
                <g
                   id="g134"
                   transform="translate(0,264)">
                  <path
                     d="m 76.73,-78.754 0,2.906"
                     style="fill:none;stroke:#000000;stroke-width:0.36000001;stroke-linecap:butt;stroke-linejoin:miter;stroke-miterlimit:3.25;stroke-dasharray:none;stroke-opacity:1"
                     id="path136"
                     inkscape:connector-curvature="0" />
                </g>
              </g>
            </g>
          </g>
        </g>
        <g
           id="g138">
          <g
             id="g140">
            <g
               id="g142"
               clip-path="url(#clipPath144-2)">
              <g
                 id="g148">
                <g
                   id="g150"
                   transform="translate(0,264)">
                  <path
                     d="m 92.262,-78.754 0,1.742"
                     style="fill:none;stroke:#000000;stroke-width:0.36000001;stroke-linecap:butt;stroke-linejoin:miter;stroke-miterlimit:3.25;stroke-dasharray:none;stroke-opacity:1"
                     id="path152"
                     inkscape:connector-curvature="0" />
                </g>
                <g
                   id="g154"
                   transform="translate(0,264)">
                  <path
                     d="m 107.789,-78.754 0,1.742"
                     style="fill:none;stroke:#000000;stroke-width:0.36000001;stroke-linecap:butt;stroke-linejoin:miter;stroke-miterlimit:3.25;stroke-dasharray:none;stroke-opacity:1"
                     id="path156"
                     inkscape:connector-curvature="0" />
                </g>
                <g
                   id="g158"
                   transform="translate(0,264)">
                  <path
                     d="m 123.32,-78.754 0,1.742"
                     style="fill:none;stroke:#000000;stroke-width:0.36000001;stroke-linecap:butt;stroke-linejoin:miter;stroke-miterlimit:3.25;stroke-dasharray:none;stroke-opacity:1"
                     id="path160"
                     inkscape:connector-curvature="0" />
                </g>
                <g
                   id="g162"
                   transform="translate(0,264)">
                  <path
                     d="m 138.852,-78.754 0,2.906"
                     style="fill:none;stroke:#000000;stroke-width:0.36000001;stroke-linecap:butt;stroke-linejoin:miter;stroke-miterlimit:3.25;stroke-dasharray:none;stroke-opacity:1"
                     id="path164"
                     inkscape:connector-curvature="0" />
                </g>
                <g
                   id="g166"
                   transform="translate(0,264)">
                  <path
                     d="m 154.383,-78.754 0,1.742"
                     style="fill:none;stroke:#000000;stroke-width:0.36000001;stroke-linecap:butt;stroke-linejoin:miter;stroke-miterlimit:3.25;stroke-dasharray:none;stroke-opacity:1"
                     id="path168"
                     inkscape:connector-curvature="0" />
                </g>
                <g
                   id="g170"
                   transform="translate(0,264)">
                  <path
                     d="m 169.914,-78.754 0,1.742"
                     style="fill:none;stroke:#000000;stroke-width:0.36000001;stroke-linecap:butt;stroke-linejoin:miter;stroke-miterlimit:3.25;stroke-dasharray:none;stroke-opacity:1"
                     id="path172"
                     inkscape:connector-curvature="0" />
                </g>
                <g
                   id="g174"
                   transform="translate(0,264)">
                  <path
                     d="m 185.441,-78.754 0,1.742"
                     style="fill:none;stroke:#000000;stroke-width:0.36000001;stroke-linecap:butt;stroke-linejoin:miter;stroke-miterlimit:3.25;stroke-dasharray:none;stroke-opacity:1"
                     id="path176"
                     inkscape:connector-curvature="0" />
                </g>
                <g
                   id="g178"
                   transform="translate(0,264)">
                  <path
                     d="m 200.973,-78.754 0,2.906"
                     style="fill:none;stroke:#000000;stroke-width:0.36000001;stroke-linecap:butt;stroke-linejoin:miter;stroke-miterlimit:3.25;stroke-dasharray:none;stroke-opacity:1"
                     id="path180"
                     inkscape:connector-curvature="0" />
                </g>
              </g>
            </g>
          </g>
        </g>
        <g
           id="g182">
          <g
             id="g184">
            <g
               id="g186"
               clip-path="url(#clipPath188-8)">
              <g
                 id="g192">
                <g
                   id="g194"
                   transform="translate(0,264)">
                  <path
                     d="m 216.504,-78.754 0,1.742"
                     style="fill:none;stroke:#000000;stroke-width:0.36000001;stroke-linecap:butt;stroke-linejoin:miter;stroke-miterlimit:3.25;stroke-dasharray:none;stroke-opacity:1"
                     id="path196"
                     inkscape:connector-curvature="0" />
                </g>
                <g
                   id="g198"
                   transform="translate(0,264)">
                  <path
                     d="m 232.035,-78.754 0,1.742"
                     style="fill:none;stroke:#000000;stroke-width:0.36000001;stroke-linecap:butt;stroke-linejoin:miter;stroke-miterlimit:3.25;stroke-dasharray:none;stroke-opacity:1"
                     id="path200"
                     inkscape:connector-curvature="0" />
                </g>
                <g
                   id="g202"
                   transform="translate(0,264)">
                  <path
                     d="m 247.566,-78.754 0,1.742"
                     style="fill:none;stroke:#000000;stroke-width:0.36000001;stroke-linecap:butt;stroke-linejoin:miter;stroke-miterlimit:3.25;stroke-dasharray:none;stroke-opacity:1"
                     id="path204"
                     inkscape:connector-curvature="0" />
                </g>
                <g
                   id="g206"
                   transform="translate(0,264)">
                  <path
                     d="m 263.094,-78.754 0,2.906"
                     style="fill:none;stroke:#000000;stroke-width:0.36000001;stroke-linecap:butt;stroke-linejoin:miter;stroke-miterlimit:3.25;stroke-dasharray:none;stroke-opacity:1"
                     id="path208"
                     inkscape:connector-curvature="0" />
                </g>
              </g>
            </g>
          </g>
        </g>
        <g
           id="g210">
          <g
             id="g212">
            <g
               id="g214"
               clip-path="url(#clipPath216-2)">
              <g
                 id="g220">
                <g
                   id="g222"
                   transform="translate(0,264)">
                  <path
                     d="m 9.434,-78.754 258.839,0"
                     style="fill:none;stroke:#000000;stroke-width:0.36000001;stroke-linecap:butt;stroke-linejoin:miter;stroke-miterlimit:3.25;stroke-dasharray:none;stroke-opacity:1"
                     id="path224"
                     inkscape:connector-curvature="0" />
                </g>
              </g>
            </g>
          </g>
        </g>
      </g>
    </g>
    <g
       transform="matrix(1.25,0,0,-1.25,192.41931,579.28017)"
       id="g226">
      <g
         id="g228"
         clip-path="url(#clipPath230-4)">
        <g
           id="g234">
          <g
             id="g236">
            <g
               id="g238"
               clip-path="url(#clipPath240-1)">
              <g
                 id="g244">
                <g
                   id="g246"
                   transform="translate(0,264)">
                  <path
                     d="m 264.48,-22.02 27.649,0"
                     style="fill:none;stroke:#ff0000;stroke-width:1.15199995;stroke-linecap:square;stroke-linejoin:miter;stroke-miterlimit:3.25;stroke-dasharray:2.88, 2.88;stroke-dashoffset:0;stroke-opacity:1"
                     id="path248"
                     inkscape:connector-curvature="0" />
                </g>
              </g>
            </g>
          </g>
        </g>
      </g>
    </g>
    <g
       transform="matrix(1.25,0,0,-1.25,192.41931,579.28017)"
       id="g250">
      <g
         id="g252"
         clip-path="url(#clipPath254-6)">
        <g
           id="g258">
          <g
             id="g260">
            <g
               id="g262"
               clip-path="url(#clipPath264-0)">
              <g
                 id="g268">
                <g
                   id="g270"
                   transform="translate(0,264)">
                  <path
                     d="m 264.48,-53.508 27.649,0"
                     style="fill:none;stroke:#0000ff;stroke-width:1.15199995;stroke-linecap:square;stroke-linejoin:miter;stroke-miterlimit:3.25;stroke-dasharray:none;stroke-opacity:1"
                     id="path272"
                     inkscape:connector-curvature="0" />
                </g>
              </g>
            </g>
          </g>
        </g>
      </g>
    </g>
    <g
       transform="matrix(1.25,0,0,-1.25,192.41931,579.28017)"
       id="g274">
      <path
         d="m 300.16,246.828 0,0.012 0.004,0.008 0.008,0.023 0,0.008 0.004,0.012 0,0.011 0.008,0.024 0,0.012 0.004,0.011 0,0.012 0.003,0.012 0,0.019 0.004,0.008 0,0.004 c 0,0.117 -0.082,0.129 -0.14,0.129 -0.117,0 -0.125,-0.028 -0.176,-0.235 l -1.922,-7.668 c -0.883,0.106 -1.324,0.536 -1.324,1.301 0,0.231 0,0.531 0.625,2.16 0.051,0.137 0.129,0.332 0.129,0.567 0,0.519 -0.371,0.949 -0.953,0.949 -1.102,0 -1.532,-1.68 -1.532,-1.789 0,-0.113 0.118,-0.113 0.145,-0.113 0.113,0 0.125,0.023 0.183,0.211 0.313,1.101 0.774,1.437 1.168,1.437 0.094,0 0.293,0 0.293,-0.371 0,-0.305 -0.117,-0.59 -0.269,-0.996 -0.555,-1.465 -0.555,-1.766 -0.555,-1.965 0,-1.101 0.906,-1.578 2.02,-1.644 -0.098,-0.418 -0.098,-0.442 -0.254,-1.059 -0.039,-0.125 -0.27,-1.063 -0.27,-1.102 0,-0.011 0,-0.117 0.141,-0.117 0.019,0 0.078,0 0.101,0.047 0.036,0.024 0.106,0.316 0.145,0.477 l 0.438,1.73 c 0.429,0 1.449,0 2.539,1.242 0.476,0.535 0.722,1.043 0.847,1.391 0.106,0.289 0.36,1.301 0.36,1.809 0,0.652 -0.309,0.812 -0.512,0.812 -0.289,0 -0.578,-0.301 -0.578,-0.559 0,-0.148 0.07,-0.214 0.176,-0.312 0.125,-0.129 0.418,-0.426 0.418,-0.984 0,-0.743 -0.606,-1.692 -1.012,-2.114 -1.02,-1.031 -1.762,-1.031 -2.18,-1.031 l 1.914,7.621 z"
         style="fill:#000000;fill-opacity:1;fill-rule:nonzero;stroke:none"
         id="path276"
         inkscape:connector-curvature="0" />
      <path
         d="m 306.301,239.934 0,0.168 -0.008,0.156 -0.004,0.156 -0.012,0.148 -0.011,0.145 -0.02,0.137 -0.019,0.133 -0.024,0.132 -0.031,0.129 -0.035,0.121 -0.039,0.121 -0.047,0.114 -0.047,0.117 -0.055,0.109 -0.094,0.164 -0.035,0.055 c -0.25,0.375 -0.754,0.695 -1.406,0.695 l 0,-0.226 c 0.441,0 0.863,-0.266 1.008,-0.738 0.133,-0.438 0.14,-1.024 0.14,-1.731 0,-0.598 0,-1.199 -0.105,-1.707 -0.164,-0.738 -0.715,-0.918 -1.043,-0.918 -0.371,0 -0.863,0.219 -1.027,0.883 -0.114,0.476 -0.114,1.144 -0.114,1.742 0,0.594 0,1.215 0.122,1.656 0.171,0.641 0.691,0.813 1.019,0.813 l 0,0.226 c -1.879,0 -1.879,-2.211 -1.879,-2.8 0,-0.582 0,-2.75 1.879,-2.75 1.887,0 1.887,2.168 1.887,2.75 z"
         style="fill:#000000;fill-opacity:1;fill-rule:nonzero;stroke:none"
         id="path278"
         inkscape:connector-curvature="0" />
      <path
         d="m 311.176,236.297 0,0.023 -0.004,0.004 0,0.008 -0.008,0.008 0,0.004 -0.004,0.008 -0.004,0.003 -0.008,0.016 -0.007,0.004 -0.004,0.008 -0.008,0.012 -0.016,0.015 -0.004,0.008 -0.007,0.004 -0.004,0.008 -0.004,0.004 -0.004,0.007 -0.008,0.004 -0.004,0.008 -0.008,0.004 -0.008,0.008 -0.003,0.008 -0.008,0.007 -0.008,0.004 -0.004,0.008 -0.008,0.008 -0.011,0.008 -0.004,0.008 -0.012,0.011 -0.008,0.004 -0.008,0.012 -0.008,0.008 c -1.449,1.465 -1.82,3.652 -1.82,5.429 0,2.02 0.442,4.04 1.867,5.485 0.149,0.144 0.149,0.164 0.149,0.199 0,0.082 -0.043,0.117 -0.114,0.117 -0.117,0 -1.16,-0.789 -1.843,-2.261 -0.594,-1.278 -0.731,-2.567 -0.731,-3.54 0,-0.906 0.125,-2.304 0.762,-3.621 0.695,-1.425 1.695,-2.179 1.812,-2.179 0.071,0 0.114,0.035 0.114,0.117 z"
         style="fill:#000000;fill-opacity:1;fill-rule:nonzero;stroke:none"
         id="path280"
         inkscape:connector-curvature="0" />
      <path
         d="m 317.078,244.078 0,0.016 -0.004,0.004 0,0.015 -0.004,0.004 0,0.008 -0.004,0.008 -0.004,0.004 0,0.008 -0.007,0.007 -0.004,0 -0.004,0.008 -0.016,0.016 -0.004,0 -0.007,0.008 -0.004,0 -0.004,0.004 -0.008,0 -0.008,0.003 -0.004,0 -0.008,0.004 -0.023,0 c -0.125,0 -0.59,-0.461 -0.785,-0.8 -0.258,0.628 -0.711,0.812 -1.078,0.812 l 0,-0.254 c 0.75,0 0.914,-0.941 0.914,-1.019 0,-0.075 -0.637,-2.614 -0.672,-2.661 -0.176,-0.324 -0.824,-1.066 -1.473,-1.066 -0.695,0 -0.742,0.895 -0.742,1.09 0,0.558 0.336,1.82 0.531,2.308 0.356,0.86 0.961,1.348 1.442,1.348 l 0,0.254 c -1.371,0 -2.797,-1.719 -2.797,-3.398 0,-1.133 0.683,-1.856 1.527,-1.856 0.504,0 0.953,0.277 1.371,0.695 -0.101,-0.406 -0.488,-1.972 -0.523,-2.078 -0.09,-0.324 -0.184,-0.371 -0.832,-0.382 -0.153,0 -0.27,0 -0.27,-0.235 0,-0.008 0,-0.125 0.153,-0.125 0.375,0 0.777,0.035 1.16,0.035 0.394,0 0.812,-0.035 1.195,-0.035 0.059,0 0.207,0 0.207,0.234 0,0.126 -0.113,0.126 -0.297,0.126 -0.562,0 -0.562,0.082 -0.562,0.187 0,0.082 0.023,0.152 0.047,0.254 l 1.601,6.449 z"
         style="fill:#000000;fill-opacity:1;fill-rule:nonzero;stroke:none"
         id="path282"
         inkscape:connector-curvature="0" />
      <path
         d="m 320.777,241.98 -0.004,0.086 0,0.09 -0.003,0.09 0,0.098 -0.012,0.195 -0.012,0.203 -0.019,0.215 -0.024,0.223 -0.035,0.226 -0.035,0.235 -0.047,0.238 -0.051,0.238 -0.066,0.246 -0.071,0.246 -0.082,0.25 -0.089,0.246 -0.051,0.125 -0.051,0.122 -0.055,0.125 -0.062,0.125 c -0.692,1.425 -1.688,2.179 -1.805,2.179 -0.07,0 -0.117,-0.047 -0.117,-0.117 0,-0.035 0,-0.055 0.219,-0.266 1.14,-1.144 1.8,-2.992 1.8,-5.418 0,-1.984 -0.429,-4.023 -1.871,-5.488 -0.148,-0.137 -0.148,-0.16 -0.148,-0.195 0,-0.07 0.047,-0.117 0.117,-0.117 0.117,0 1.156,0.789 1.844,2.261 0.59,1.274 0.73,2.563 0.73,3.539 z"
         style="fill:#000000;fill-opacity:1;fill-rule:nonzero;stroke:none"
         id="path284"
         inkscape:connector-curvature="0" />
      <path
         d="m 300.16,215.344 0,0.008 0.004,0.007 0.008,0.024 0,0.008 0.004,0.011 0,0.012 0.008,0.024 0,0.011 0.004,0.012 0,0.012 0.003,0.011 0,0.02 0.004,0.008 0,0.004 c 0,0.117 -0.082,0.129 -0.14,0.129 -0.117,0 -0.125,-0.028 -0.176,-0.235 l -1.922,-7.668 c -0.883,0.106 -1.324,0.535 -1.324,1.301 0,0.23 0,0.531 0.625,2.16 0.051,0.137 0.129,0.332 0.129,0.567 0,0.519 -0.371,0.949 -0.953,0.949 -1.102,0 -1.532,-1.68 -1.532,-1.789 0,-0.114 0.118,-0.114 0.145,-0.114 0.113,0 0.125,0.024 0.183,0.211 0.313,1.102 0.774,1.438 1.168,1.438 0.094,0 0.293,0 0.293,-0.371 0,-0.305 -0.117,-0.59 -0.269,-0.996 -0.555,-1.465 -0.555,-1.766 -0.555,-1.965 0,-1.102 0.906,-1.578 2.02,-1.645 -0.098,-0.418 -0.098,-0.441 -0.254,-1.058 -0.039,-0.125 -0.27,-1.063 -0.27,-1.102 0,-0.012 0,-0.117 0.141,-0.117 0.019,0 0.078,0 0.101,0.047 0.036,0.023 0.106,0.316 0.145,0.48 l 0.438,1.727 c 0.429,0 1.449,0 2.539,1.242 0.476,0.535 0.722,1.043 0.847,1.391 0.106,0.289 0.36,1.3 0.36,1.808 0,0.653 -0.309,0.813 -0.512,0.813 -0.289,0 -0.578,-0.301 -0.578,-0.559 0,-0.148 0.07,-0.215 0.176,-0.312 0.125,-0.125 0.418,-0.426 0.418,-0.985 0,-0.742 -0.606,-1.691 -1.012,-2.109 -1.02,-1.035 -1.762,-1.035 -2.18,-1.035 l 1.914,7.625 z"
         style="fill:#000000;fill-opacity:1;fill-rule:nonzero;stroke:none"
         id="path286"
         inkscape:connector-curvature="0" />
      <path
         d="m 304.828,211.02 0,0.117 -0.004,0.008 0,0.015 -0.004,0.008 0,0.004 -0.004,0.008 -0.004,0.011 0,0.004 -0.007,0.008 -0.004,0.008 -0.012,0.012 -0.023,0.011 -0.012,0.004 -0.008,0.004 -0.023,0 -0.008,0.004 -0.027,0 -0.008,0.004 -0.094,0 c -0.52,-0.516 -1.254,-0.52 -1.59,-0.52 l 0,-0.292 c 0.195,0 0.731,0 1.176,0.226 l 0,-4.137 c 0,-0.273 0,-0.375 -0.813,-0.375 l -0.304,0 0,-0.293 c 0.144,0.008 1.144,0.032 1.445,0.032 0.25,0 1.273,-0.024 1.453,-0.032 l 0,0.293 -0.312,0 c -0.813,0 -0.813,0.102 -0.813,0.375 l 0,4.493 z"
         style="fill:#000000;fill-opacity:1;fill-rule:nonzero;stroke:none"
         id="path288"
         inkscape:connector-curvature="0" />
      <path
         d="m 311.176,204.809 0,0.023 -0.004,0.004 0,0.008 -0.008,0.008 0,0.003 -0.004,0.008 -0.004,0.004 -0.008,0.016 -0.011,0.012 -0.008,0.011 -0.012,0.012 -0.004,0.008 -0.004,0.004 -0.007,0.004 -0.004,0.007 -0.004,0.004 -0.004,0.008 -0.008,0.004 -0.004,0.008 -0.008,0.004 -0.008,0.008 -0.003,0.007 -0.079,0.078 c -1.449,1.465 -1.82,3.657 -1.82,5.43 0,2.02 0.442,4.039 1.867,5.485 0.149,0.144 0.149,0.168 0.149,0.203 0,0.078 -0.043,0.113 -0.114,0.113 -0.117,0 -1.16,-0.789 -1.843,-2.258 -0.594,-1.281 -0.731,-2.566 -0.731,-3.543 0,-0.906 0.125,-2.304 0.762,-3.621 0.695,-1.426 1.695,-2.18 1.812,-2.18 0.071,0 0.114,0.036 0.114,0.118 z"
         style="fill:#000000;fill-opacity:1;fill-rule:nonzero;stroke:none"
         id="path290"
         inkscape:connector-curvature="0" />
      <path
         d="m 317.078,212.594 0,0.011 -0.004,0.004 0,0.016 -0.004,0.004 0,0.008 -0.004,0.008 -0.004,0.003 0,0.008 -0.035,0.035 -0.007,0.004 -0.004,0 -0.004,0.004 -0.008,0.004 -0.012,0 -0.008,0.004 -0.023,0 c -0.125,0 -0.59,-0.461 -0.785,-0.801 -0.258,0.629 -0.711,0.813 -1.078,0.813 l 0,-0.254 c 0.75,0 0.914,-0.942 0.914,-1.02 0,-0.074 -0.637,-2.613 -0.672,-2.66 -0.176,-0.324 -0.824,-1.066 -1.473,-1.066 -0.695,0 -0.742,0.894 -0.742,1.09 0,0.558 0.336,1.824 0.531,2.308 0.356,0.86 0.961,1.348 1.442,1.348 l 0,0.254 c -1.371,0 -2.797,-1.719 -2.797,-3.399 0,-1.132 0.683,-1.855 1.527,-1.855 0.504,0 0.953,0.277 1.371,0.695 -0.101,-0.406 -0.488,-1.972 -0.523,-2.078 -0.09,-0.324 -0.184,-0.371 -0.832,-0.383 -0.153,0 -0.27,0 -0.27,-0.234 0,-0.008 0,-0.125 0.153,-0.125 0.375,0 0.777,0.035 1.16,0.035 0.394,0 0.812,-0.035 1.195,-0.035 0.059,0 0.207,0 0.207,0.234 0,0.125 -0.113,0.125 -0.297,0.125 -0.562,0 -0.562,0.082 -0.562,0.188 0,0.082 0.023,0.152 0.047,0.254 l 1.601,6.453 z"
         style="fill:#000000;fill-opacity:1;fill-rule:nonzero;stroke:none"
         id="path292"
         inkscape:connector-curvature="0" />
      <path
         d="m 320.777,210.492 -0.004,0.086 0,0.09 -0.003,0.09 0,0.097 -0.012,0.196 -0.012,0.203 -0.019,0.215 -0.024,0.222 -0.035,0.227 -0.035,0.234 -0.047,0.239 -0.051,0.238 -0.066,0.246 -0.071,0.246 -0.082,0.25 -0.089,0.246 -0.102,0.25 -0.055,0.121 -0.062,0.125 c -0.692,1.426 -1.688,2.18 -1.805,2.18 -0.07,0 -0.117,-0.047 -0.117,-0.113 0,-0.035 0,-0.059 0.219,-0.27 1.14,-1.144 1.8,-2.992 1.8,-5.418 0,-1.98 -0.429,-4.023 -1.871,-5.488 -0.148,-0.137 -0.148,-0.16 -0.148,-0.195 0,-0.071 0.047,-0.118 0.117,-0.118 0.117,0 1.156,0.793 1.844,2.262 0.59,1.274 0.73,2.563 0.73,3.539 z"
         style="fill:#000000;fill-opacity:1;fill-rule:nonzero;stroke:none"
         id="path294"
         inkscape:connector-curvature="0" />
    </g>
    <g
       transform="matrix(1.25,0,0,-1.25,192.41931,579.28017)"
       id="g772">
      <path
         d="m 138.836,258.812 0,-89.04023"
         style="fill:none;stroke:#000000;stroke-width:0.40000001;stroke-linecap:butt;stroke-linejoin:miter;stroke-miterlimit:4;stroke-dasharray:none;stroke-opacity:1"
         id="path784"
         inkscape:connector-curvature="0"
         sodipodi:nodetypes="cc" />
    </g>
  </g>
</svg>
